<?xml version="1.0" encoding="UTF-8"?>
<svg version="1.1" viewBox="0 0 1600 1600" width="30" height="30" xmlns="http://www.w3.org/2000/svg">
<path transform="translate(354,103)" d="m0 0h874l36 2 27 4 24 6 25 9 27 13 20 12 13 10 14 11 13 12 10 9 7 8 12 14 12 17 11 17 12 23 8 19 5 15 5 22 4 29 2 29 1 31 1 68v386l-1 41-2 39-4 32-6 26-6 18-9 20-13 25-11 16-9 12-11 13-9 10-15 15-11 9-16 12-15 10-17 10-17 8-25 9-25 7-27 5-32 3-33 1h-700l-73 1-9 3-17 10-15 9-43 25-20 12-26 16-28 17-26 16-25 15-22 13-15 9-18 11-24 13-16 8-15 5-4 1h-9l-17-6-6-4-4-12-2-25-1-58v-861l1-32 2-28 3-26 5-25 6-21 10-27 8-16 12-20 12-16 13-16 8-10h2l2-4 8-7 7-7 10-8 12-10 15-10 21-12 19-9 17-6 27-8 22-4 22-2z" fill="#8ACFB8"/>
<path transform="translate(354,103)" d="m0 0h874l36 2 27 4 24 6 25 9 27 13 20 12 13 10 14 11 13 12 10 9 7 8 12 14 12 17 11 17 12 23 8 19 5 15 5 22 4 29 2 29 1 31 1 68v386l-1 41-2 39-4 32-6 26-6 18-9 20-13 25-11 16-9 12-11 13-9 10-15 15-11 9-16 12-15 10-17 10-17 8-25 9-25 7-27 5-32 3-33 1h-700l-73 1-9 3-17 10-15 9-43 25-20 12-26 16-28 17-26 16-25 15-22 13-15 9-18 11-24 13-16 8-15 5-4 1h-9l-17-6-6-4-4-12-2-25-1-58v-861l1-32 2-28 3-26 5-25 6-21 10-27 8-16 12-20 12-16 13-16 8-10h2l2-4 8-7 7-7 10-8 12-10 15-10 21-12 19-9 17-6 27-8 22-4 22-2zm557 73-7 1h-270l-21 1-16-1-4 1h-20l-8-1h-40l-8 1-18-1h-18l-12 1-25-1h-76l-18 1h-12l-22 3-8 2-15 5-13 4-16 7-14 9-16 12-11 9-3 1-6 7-6 5-6 7-6 5-2 4-5 5-6 8-12 17-10 16-7 16-5 10-3 16-2 29-1 90v826l1 2h4v-2l6-2 10-8 20-13 22-14 10-6 11-7 17-11 11-6 3-2v-2l5-1 9-6 7-4 13-8 7-4 13-8 12-7 9-6 14-7 9-6 32-16 12-4 9-4 12-1 2-1h16l9-1h9l10-1 15 1 9-1h221l41-1h171l26 1h17l3-1h53l40 1h80l34-1h51l22-2 10-1 12-2 13-3h2v-2l8-1 7-2 12-5 12-4 5-4 7-3v-2l5-1v-2h3v-2l4-2 5-3 13-10v-2l4-2 8-7 4-4v-2l4-2v-2h2l8-10v-2h2l4-6 10-13 6-12 6-13 7-20 3-14 4-33 2-25 1-35 1-69v-254l-1-143-1-44-2-21-4-20-8-20-8-14-6-12-6-9-10-13-5-6-10-10-7-8-11-9-12-9-5-2v-2l-12-7-19-10-16-6-5-2-16-3-19-3-10-1-40-1-26-1-75-1h-14l-9-1h-36l-10-1-5 1-46-1h-72z" fill="#474C54"/>
<path transform="translate(435,443)" d="m0 0h529l197 1 28 3 8 5 5 8 1 12v18l-2 23-2 3h-437l-57-1-181-1h-103l-19-2-8-4-6-7-3-12-1-12 1-14 2-7h2v-3l6-5 7-3 5-1z" fill="#FCFCFC"/>
<path transform="translate(523,631)" d="m0 0h172l86 1h31l104-1h232l31 1 16 2 4 4 2 16v38l-2 4-6 3-5 1-43 1h-166l-39 1h-155l-37-1h-237l-70 1h-29l-13-2-7-3-5-5-2-5-1-20 1-17 5-10 6-5 9-2z" fill="#FCFCFC"/>
<path transform="translate(941,161)" d="m0 0h20l5 1h14l14-1h29l13 1 31-1 32 1 5-1 25 1h17l4 1 10-1v2h7l6-1 12 1 7-1h6l4 1h8l5 1h15l21 2 6 1 10 3 15 3 12 1 7 4 7 1v2h9l10 4 6 4 9 4v2h2v2l6 1v2l5 1 2 3 5 3 5 4 3 2v2l5 2 3 4 5 3 8 8v2h2l7 8 3 2 2 6h3v2l3 1 4 5 2 4v3h2l9 17v2l3 1 8 16 4 10 2 4 3 20v8l3 12v15l2 17v22l-1 3-1 26v9l-1 18v34l-1 16v19l-1 6 1 113v82l1 34v60l1 32v53h-2l1 2v23l-2 9-2 12v7l-2 8-3 19-5 14-2 5-2 10-6 10-4 9-7 11-6 8-10 10-6 7-3 3-9 11-7 6-20 12-4 3-12 6-8 5-10 4-9 3-14 6-16 4-9 2-8 2-16 2-10 2-23 1-13 1h-35l-13-1-9 1h-35l-23-1-25 1h-105l-10-1h-209l-25-1-15 1h-49l-14-1-52 1h-93l-19 1-38 1-24 2-9 4-13 6-13 8-16 8-4 1v2l-15 9-8 3-3 3-8 4-10 4-20 11-9 6-17 9-11 7-25 14-7 4h-2v2l-8 3-10 5-4 3h-4v2l-8 4-3 2h-3v2l-5 2h-3v2l-5 3-7 2-6 2-2-1-1 3-4 1-3-1-1-3-1-248v-194l-1-12 1-19-1-269-1-41-1-69-1-38v-27l1-5-1-8 1-15 3-6h2l2-13 1-3v-7l3-6 2-6 1-10 4-10 8-14 6-5 2-4h2l1-4 4-4 7-8 4-5h2l2-9 5-5 7-5h2v-2h2l2-4 9-6 3-3 8-4 4-3h2l1-5 10-7 10-4 7-2 17-5 12-3 7-3 29-6 2 1 14-1 2-1 10-1h58l9 1 26-2 8 1h43l8 1 2-1h31l3 1 3-1h122l3-1 5 1h88l6 1 17-1 4 1 2-1 9 1 10-1h6 3 24l4 1 4-1h15l11-1 3 1 7-1h48zm-30 15-7 1h-270l-21 1-16-1-4 1h-20l-8-1h-40l-8 1-18-1h-18l-12 1-25-1h-76l-18 1h-12l-22 3-8 2-15 5-13 4-16 7-14 9-16 12-11 9-3 1-6 7-6 5-6 7-6 5-2 4-5 5-6 8-12 17-10 16-7 16-5 10-3 16-2 29-1 90v826l1 2h4v-2l6-2 10-8 20-13 22-14 10-6 11-7 17-11 11-6 3-2v-2l5-1 9-6 7-4 13-8 7-4 13-8 12-7 9-6 14-7 9-6 32-16 12-4 9-4 12-1 2-1h16l9-1h9l10-1 15 1 9-1h221l41-1h171l26 1h17l3-1h53l40 1h80l34-1h51l22-2 10-1 12-2 13-3h2v-2l8-1 7-2 12-5 12-4 5-4 7-3v-2l5-1v-2h3v-2l4-2 5-3 13-10v-2l4-2 8-7 4-4v-2l4-2v-2h2l8-10v-2h2l4-6 10-13 6-12 6-13 7-20 3-14 4-33 2-25 1-35 1-69v-254l-1-143-1-44-2-21-4-20-8-20-8-14-6-12-6-9-10-13-5-6-10-10-7-8-11-9-12-9-5-2v-2l-12-7-19-10-16-6-5-2-16-3-19-3-10-1-40-1-26-1-75-1h-14l-9-1h-36l-10-1-5 1-46-1h-72z" fill="#5A646C"/>
<path transform="translate(882,817)" d="m0 0h40l19 3 8 4 2 3 1 6v27l-3 24h-2l-2 4-8 1-49 1-192 1-285-2-15-3-6-4-3-4-2-17v-20l2-13 4-5 6-3 16-2h390z" fill="#FCFCFC"/>
<path transform="translate(911,176)" d="m0 0 14 1h78l34 1 5-1 17 1h29l15 1h22l68 1 21 1 37 1 24 3 14 3 9 2 12 4 9 4 21 11 8 5v2l5 2 13 10 7 5 5 6 7 6 6 8 5 5 7 8 7 9 6 11 10 18 6 14 4 10 4 20 2 26 1 39 1 159v240l-1 74-1 28-4 44-3 18-4 16-7 19-5 10-7 13-9 11-3 5h-2l-2 4-6 8h-2l-2 4h-2l-2 4-8 8-4 3h-2l-2 4-12 9-6 4h-2v2h-3v2l-5 1v2l-10 5-2 2-24 9-11 3h-4v2l-13 2-9 2-11 2-17 1-9 1h-53l-43 1h-79l-43-1h-41l-3 1h-18l-34-1h-163l-42 1h-224l-4 1-16-1-12 1h-11l-4 1h-16l-4 1-9 1-15 6-11 4-20 11-10 5-12 7-9 5-20 12-26 16-10 6-14 9h-4v2l-30 18-5 4-9 5-4 3-7 4-11 7-19 12-17 12-6 4h-2v2h-4l-1-2v-835l1-81 2-29 3-16 9-19 7-14 8-12 10-14 12-15 5-6 7-6 5-6 7-6 1-2 7-4 13-11 16-11 12-7 20-8 11-3 11-4 20-3 8-1h20l18-1h77l17 1 16-1h14l22 1 4-1h41l7 1h20l5-1 15 1 31-1h264zm203 10-9 1h-33l-8 1-17-1-7 1h-13l-4 1-15-1h-28l-19 1h-28l-9-1-10 1h-32l-7-1-18 1-2-1-7 1h-79l-10-1-9 1h-28l-5-1-8 1h-55l-18-1-12 1h-42l-10-1-7 1h-16l-14-1h-37l-7-1-21 1h-48l-18-1h-27l-19 1h-45l-14 4-13 2-16 5-2 2-5 2-12 7-5 4-13 10-9 7v2l-4 2-20 20-7 8-10 11-10 14-13 22-6 16-5 13-2 34-1 39-1 74-1 601v133l1 31 1 10 4 7 6 12-1 2 5-1 8-7 7-4v-2l6-2 9-6 5-4 11-6 13-8 17-11 11-7 11-6 17-11 8-6 9-5 7-4v-2l5-2 24-15 13-8v-2l4-1 15-9 7-4 2-1v-2l4-1 4-2v-2l5-1 17-7 15-5 12-2 52-2h19l6-1h54l30-1h82l5-1h56l42-1h149l24-1h55l7 1 13-1h100l35 1h54l33-1 7-1 17-1 17-3 16-4 14-5 12-6 5-2v-2l4-1 7-5 5-3 9-6v-2h3v-2l6-2v-3l4-1 1-3 4-2 6-5 7-8 4-5 3-5 1-4h2l3-6 4-4 9-14 9-21 5-14 5-19 2-20 1-5 3-36 1-43 1-53 1-67v-291l-2-62-1-20-3-16-7-23-3-7-1-3h-2l-2-9h-2l-2-7-9-17-7-11-11-14h-2l-2-4-8-9-6-5-8-8h-2v-2l-7-4-10-8h-2l-1-3-11-7-13-6-19-7-16-3-13-2-32-2h-64l-29 1z" fill="#6E9F93"/>
<path transform="translate(523,631)" d="m0 0h172l86 1h31l104-1h232l31 1 16 2 4 4 2 16v38l-2 4-6 3-5 1-43 1h-166l-39 1h-155l-37-1h-237l-70 1h-29l-13-2-7-3-5-5-2-5-1-20 1-17 5-10 6-5 9-2zm638 5-10 1h-15l-5 1-45 2-41 1h-19l-45 1h-18l-31 1h-18l-36 1-82 2h-11l-20-1h-32l-69-2-18-1h-15l-31-2-43-2h-19l-4-1h-133l-10 9-3 9-1 17 2 15 5 7 7 3h21l57-2 20-1 50-1h35l32-1 27-1h27l29-1h180l57 1h221l29-1 10-2 3-4 1-5v-25l-1-1-1-8-3-5h-2v-2l-14-2z" fill="#F2F6EF"/>
<path transform="translate(685,171)" d="m0 0 10 1 38-1 14 1h42l8-1 6 1h32l8-1 14 1h73l1 1h10l13-1 23 1h20l17 1h43l8 1 10-1h15l13 1 4-1h10l12 1 6-1h8l3 1 14-1 13 2 1-2 3 1h5l3-1 11 1 9 1 4 1h16l6 1 19 1 9 1 11 1 10 3 10 1 9 2 10 4 11 3 4 3 7 3 8 4v2l5 2 7 5 3 1v2l4 2v2l3 1v2l5 2 7 4v2h2l5 5v2h2v2h2v2l4 2 6 7v2l4 2 2 4 3 1 2 5h2l9 14 9 16 8 17 5 14 2 6 2 9 2 20 1 30 1 54v441l-3 59-3 20-2 13-3 13-4 10-3 9-5 12-9 17-4 6-3 2-2 4-5 5-5 7-16 16h-2v2h-2v2l-8 7-12 10-14 8h-2v2l-12 7h-4v2l-11 3-10 4-16 5-15 3-11 2-8 1-5 1-11 1-12 1-55 1h-15l-10 1h-162-2l-19-1h-32l-4 1-7-1h-318l-5 1h-9l-7-1-4 1h-9l-7-1-4 1-6-1-6 1-6-2v2h-46l-11 1h-43l-14 1h-9l-10 3-8 3-5 2-7 2-20 10-5 3-7 3-2 2-7 2v2h-4v2l-7 4-9 5-4 1v2l-10 5h-2v2l-5 3-4 2-16 9-7 5-7 4-17 10-3 1-1 2-11 6-8 4-1 2-11 6-5 4-11 6-4 1v2l-8 4-12 7-5 3-2-1 15-10 22-14 10-6 11-7 17-11 11-6 3-1v-2l7-3 7-5 7-4 13-8 7-4 13-8 12-7 9-6 14-7 9-6 32-16 12-4 9-4 12-1 2-1h16l9-1h9l10-1 15 1 9-1h221l41-1h171l26 1h17l3-1h53l40 1h80l34-1h51l22-2 10-1 12-2 13-3 2 1v-2l15-4 12-5 12-4 5-4 7-2v-2l5-1v-2h3v-2l9-6 12-9 5-5 8-7 4-5 4-4h2l2-4 6-8h2l2-5 10-12 7-14 6-13 7-20 3-14 4-33 2-25 1-35 1-69v-254l-1-143-1-44-2-21-4-20-8-20-8-14-6-12-6-9-10-13-4-4v-2l-3-1-5-6v-2l-4-2-5-6-3-2v-2l-4-2-16-12-5-3v-2l-6-2-9-6-16-8-16-6-5-2-16-3-19-3-10-1-40-1-26-1-75-1h-14l-9-1h-36l-10-1-5 1-46-1h-72l-7-1-7 1h-270l-21 1-16-1-4 1h-20l-8-1h-40l-8 1-18-1h-18l-12 1-25-1h-76l-18 1h-12l-22 3-8 2-15 5-13 4-16 7-14 9-16 12-11 9h-3l-2 4h-2l-2 4-4 4h-2l-2 4-4 4h-2l-2 4h-2l-2 5h-2l-2 4-6 8-5 5v-6h2l1-5 9-11 1-4 6-5 3-3h2l1-3 7-6 1-2h3l1-4 6-4h3v-2l5-2v-3l12-6 1-2 12-6 2-2 10-4 9-4 7-3 9-3 13-5 7-2 5-2 11-3 28-1h46l19-1 5 1h105l12-1 9 1 9-1 22 1 16-1h76z" fill="#637A7D"/>
<path transform="translate(869,627)" d="m0 0 67 1h102l108 1 29 1 16 2 7 2 3 6 1 13v40l-4 8-6 3-21 3-16 2-1 1h-9l-22 3h-9l-9 1-3-1-11 2-7-1h-10l-9 1-7 1h-63l-7-1-2 1h-11l-2-1h-26l-2 1h-9l-9-1-7 1-11-1-7 2h-25l-3 1h-46l-6 1-7-1-14-1-7 1-7-1h-45l-9-1-6 1h-14l-14 1-4-1-20-1h-51l-10-1h-23l-27-1-5-1-1 1h-56l-7-1-14 2-27 2-30 1-12-1-14-5-5-4-2-7-5-5-3-5-2-11 1-19 2-7h1v19l1 14 2 7 4 2 7 3 13 2h36l75-1h232l34 1h160l43-1h164l32-1 11-3 1-4v-38l-2-16-3-3-16-2-34-1h-230l-125 1h-25l-71-1h-171l-118 2-9 1 2-2 3-1 12-1 49-1 91-1 56-1h209z" fill="#A0D8C2"/>
<path transform="translate(941,161)" d="m0 0h20l5 1h14l14-1h29l13 1 31-1 32 1 5-1 25 1h17l4 1 10-1v2h7l6-1 12 1 7-1h6l4 1h8l5 1h15l21 2 6 1 10 3 15 3 12 1 7 4 7 1v2h9l10 4 6 4 9 4v2h2v2l6 1v2l5 1 2 3 5 3 5 4 3 2v2l5 2 3 4 5 3 8 8v2h2l7 8 3 2 2 6h3v2l3 1 4 5 2 4v3h2l9 17v2l3 1 8 16 4 10 2 4 3 20v8l3 12v15l2 17v22l-1 3-1 26v9l-1 18v34l-1 16v19l-2 2v-144l1-6-1-16-2-28-3-15-5-15-3-7v-3h-2l-2-5v-4h-2l-3-7-2-4-4-4-3-5-1-4-5-8v-2h-2v-2h-2l-5-5-6-5-2-2-2-3v-3l-4-1-1-4h-2l-7-8v-2l-6-2-3-4v-2l-5-1-8-8-5-3-7-5-10-4h-2v-2h-2v-2l-13-3-10-5-15-3-4 1-3-2-18-4v-2l-3 1-4-1-8-1h-7l-9-2-3 1-9-1-11-1h-17l-9-2h-7l-9 2-31-3v2h-2v-2l-9 1-39-2-2 1v-2l-8 2h-42l-7-1-11 2-9-2-12 1h-53l-3 1-8-1h-11l-5 1-4-1-11 1h-8-2l-19-1-1 1h-47l-8 1-18-1h-39l-7-1-2 1h-20l-5 1h-41l-8-1-9 1h-16l-11-1-17 1h-56l-14 1h-8-3l-14-1-3 1h-23l-9-1h-10l-16 1-5-1-7 1-5-1h-28l-5 1-5-1-19 1-16-1-19-1-29 2v2l-11 1-8 3-8 2-15 7-11 3-9 3-5 2-12 7-10 5-6 5-7 4-6 5h-2v2l-5 5-3 1v2l-4 3h-3l-1 4h-3l-1 4h-3l-2 5h-2l-2 4h-2l-1 4h-3l-1 4-4 5-5 4-6 10-2 4-4 4 1 8-3 7-4 14-8 17-3 16-2 29-1 90v582l-1 244h-1l-1-248v-194l-1-12 1-19-1-269-1-41-1-69-1-38v-27l1-5-1-8 1-15 3-6h2l2-13 1-3v-7l3-6 2-6 1-10 4-10 8-14 6-5 2-4h2l1-4 4-4 7-8 4-5h2l2-9 5-5 7-5h2v-2h2l2-4 9-6 3-3 8-4 4-3h2l1-5 10-7 10-4 7-2 17-5 12-3 7-3 29-6 2 1 14-1 2-1 10-1h58l9 1 26-2 8 1h43l8 1 2-1h31l3 1 3-1h122l3-1 5 1h88l6 1 17-1 4 1 2-1 9 1 10-1h6 3 24l4 1 4-1h15l11-1 3 1 7-1h48z" fill="#525A63"/>
<path transform="translate(1328,205)" d="m0 0 5 2 11 7 5 3v2l5 2 14 11 19 19 3 4v2l3 1 9 11 7 11 8 15 6 10 5 11 6 18 4 18 1 8 2 54 1 139v209l-1 62v42l-2 43-3 39-3 24-5 19-4 9-12 26-9 11-8 11-1 2h-2l-2 4-5 7-6 5-1 2h-2l-2 4-4 1v2l-11 9-9 6-8 6h-2v2l-6 1v2l-15 8-14 5-11 4-17 4-19 3-5 1h-13l-11 1h-50l-2 1-18-1h-404l-22 1h-134l-10 1h-119l-7 1h-13l-21 1-16 2-12 3-8 4-13 6-13 7-13 8-11 6-10 6-11 6-12 8-7 4-12 8-5 1 4-4 7-4h2v-2l21-13 19-12h2v-2l11-6 12-8 5-1v-2l5-3h3v-2l15-6 11-5 11-3 12-2 52-2h19l6-1h54l30-1h82l5-1h56l42-1h149l24-1h55l7 1 13-1h100l35 1h54l33-1 7-1 17-1 17-3 16-4 14-5 12-6 5-1v-2l9-5 11-8 4-2 1-2h3v-2l3-2h3v-3l4-2 9-9h2l2-4 7-7 3-6 3-5h2l1-5 4-2 2-5 8-12 9-21 5-14 5-19 2-20 1-5 3-36 1-43 1-53 1-67v-291l-2-62-1-20-3-16-7-23-3-7v-3h-2l-2-9h-2l-10-21-7-11-7-9-5-7-5-5-7-8-7-6-5-5-4-3v-2l-4-1-10-8-5-3-3-3-10-7z" fill="#74B09D"/>
<path transform="translate(523,631)" d="m0 0h172l86 1h31l104-1h232l31 1 16 2 4 4 2 16v38l-2 4-6 3-5 1-43 1h-166l-39 1h-155l-37-1h-237l-70 1h-29l-13-2-7-3-5-5-2-5-1-20 1-17 5-10 6-5 9-2zm-38 3-83 1-8 4-5 8-3 11v19l2 13 8 7 2 1 9 1h27l107-2h75l79-1h62l48-1 66 1h316l9-2 4-4v-36l-2-13-2-4-7-2-17-1h-68l-59 1-84 1h-44l-81 2h-99l-25-1h-20l-38-2h-30l-21-1z" fill="#E2E9DF"/>
<path transform="translate(1447,736)" d="m0 0h2l1 34v60l1 32v53h-2l1 2v23l-2 9-2 12v7l-2 8-3 19-5 14-2 5-2 10-6 10-4 9-7 11-6 8-10 10-6 7-3 3-9 11-7 6-20 12-4 3-12 6-8 5-10 4-9 3-14 6-16 4-9 2-8 2-16 2-10 2-23 1-13 1h-35l-13-1-9 1h-35l-23-1-25 1h-105l-10-1h-209l-25-1-15 1h-49l-14-1-52 1h-93l-19 1-38 1-24 2-9 4-13 6-13 8-16 8-4 1v2l-15 9-8 3-3 3-8 4-10 4-20 11-9 6-17 9-11 7-25 14-7 4h-2v2l-8 3-10 5-4 3h-4v2l-8 4-3 2h-3v2l-5 2h-3v2l-5 3-7 2-6 2-2-1-1 3-4 1-3-1 1-3v2h4v-2l8-5 8-6 8-2 11-6 12-6 10-6 10-5h2l1-2 2-2 6-2 11-6 9-6 3-3h3v-2l7-3 5-2v-2l8-4 7-3 2-2 7-1v-2h2l2-4 6-3h2v-2l7-1 9-5 12-7v-2l14-7 10-8 9-3h2v-2l9-4 11-6 9-3 7-3 15-5h13l19-1h96l10-1h43l15-1h67l6-1 4 1 7-1h3l3 1 5-1 7 1h8l5-1h19l10 1h91l8 1 11-1 12 1 10-1h61l6 1h33l2 1 17-1 16 1h33l3 1 1-2h73l6-1h56l3-1 11 2 1-2h6l2-1h22l2 1 1-2 13-1 18-3 20-5 12-5 9-4 10-2 16-8 12-7h3l2-4 8-5 8-6 8-8h2v-3l5-2 2-4 10-11 3-6h2v-2l6-4 3-6 5-7 6-13h2l2-9 3-9 3-8 4-9 2-15 2-6 1-15 2-5 1-14v-12l1-22 1-40z" fill="#525A63"/>
<path transform="translate(1446,727)" d="m0 0 2 2 1 140-1 42-1 13v15l-1 11-2 5-1 15-2 6-2 15-4 9-3 8-6 18h-2l-1 5-5 9-6 9-2 4-4 3h-2v2h-2l-2 6-12 13-4 4h-2v3l-8 7-7 6-5 4-6 3-2 3-12 6-10 6-11 5-8 1-11 5-17 6-16 4-13 1-6 1-9 1-5 1h-21l-3 1-5 1h-8l-4-1-7 1h-53l-6 1h-71l-4 1h-34l-17-1-16 1-4-1h-31l-9-1h-58l-10 1-11-1-13 1-13-1h-85l-14-1h-17l-7 1h-7l-7-1-5 1-4-1-6 1-7-1-7 1h-69l-15 1h-42l-5 1h-96l-23 1h-8l-10 4-9 3-11 3-15 9-6 1v2l-7 1-1 2-7 4-6 5-10 5-7 6-9 5-12 6-4-1v2l-9 5-1 2h-2v2l-8 3-2 2-6 2-5 3h-3v2l-8 5h-4v2l-5 3-3 3-11 6-8 5-5 1-3 3-8 4-14 8-12 6-13 7-4-1 12-6 6-4 9-5h3v-2l12-7 6-3 10-7h3l1-3 11-6 5-3h3l1-3 10-5 10-6 14-9 10-6 10-5 5-2v-2l8-4 4-1v-2l9-5 7-4 4-1v-2h4v-2l20-10 4-3 7-3 5-3 7-3 9-2 2-2 7-2 10-3h16l13-1h42l12-1h37l3 1v-2l7 1 6-1 7 1 6-1 4 1h9l4-1 12 1h7l1-1h323l3 1 8-1h31l15 1h3 162l15-1h23l41-1 21-2h6l1-1 16-2 11-3 10-2 22-7 8-3h4v-2l8-3 6-4h2v-2l11-6 8-6 5-2 1-3 8-7 3-1v-2h2v-2l8-7 5-5 3-4h2l2-4 6-8 2-1 3-5h2l2-5 6-11 5-10 4-9 6-17 2-5 3-14 2-18 2-11 3-63z" fill="#5A646C"/>
<path transform="translate(386,495)" d="m0 0 2 4 6 8 8 4 19 2h110l174 1 74 1h297l118 1v1l-5 1-65 2h-27l-12 2-17-1-16 1-30-1-3 1h-12l-4 1-2-1h-9l-2-1-21 1-9 1-8-1h-50l-2 1-7-1-8 1-7-1h-19l-5 1h-10l-9-1-8 1-7-1-4 2h-15l-7-1-5 1-14 1-9-1v-2l-6 2-21 2h-40v-2l-4 2h-6l-6-1-20 1-13-1h-13l-15 1-1-1-10-1h-73l-55-2-32 1-13 1-2 1h-21l-9-1-9-5-4-8-6-7-2-6z" fill="#A0D8C2"/>
<path transform="translate(869,627)" d="m0 0 67 1h102l108 1 29 1 16 2 7 2 3 6 1 13v40l-3 6-6 3-13 2-49 1h-123l-135 2h-112l-49-1h-16l-103-2h-181l-16-3-9-6-3-7-1-6v-22l1-6h1v19l1 14 2 7 4 2 7 3 13 2h36l75-1h232l34 1h160l43-1h164l32-1 11-3 1-4v-38l-2-16-3-3-16-2-34-1h-230l-125 1h-25l-71-1h-171l-118 2-9 1 2-2 3-1 12-1 49-1 91-1 56-1h209z" fill="#C1DECC"/>
<path transform="translate(911,176)" d="m0 0 14 1h78l34 1 5-1 17 1h29l15 1h22l68 1 21 1 37 1 24 3 14 3 9 2 12 4 3 3-5-1-16-5-19-4-24-2-72-1h-57l-7-1h-36l-5 1-9-1h-56l-3 1-9-1h-19l-2 1-7-1h-21l-9 1-7-1h-18l-3 1-7-1-13 1h-381l-7-1-3 1-16-1-4 1-37-1h-72l-52 2-15 4-13 3-15 5-2-1 10-5 17-5 11-4 20-3 8-1h20l18-1h77l17 1 16-1h14l22 1 4-1h41l7 1h20l5-1 15 1 31-1h264z" fill="#6C978E"/>
<path transform="translate(882,817)" d="m0 0h40l19 3 8 4 2 3 1 6v27l-3 24h-2l-2 4-8 1-49 1-192 1-285-2-15-3-6-4-3-4-2-17v-20l2-13 4-5 6-3 16-2h390zm-411 2-66 2-11 2-5 4-1 3-1 12v17l4 11 1 8 5 5 11 2h34l81-1 111-1h37l20 1h90l44 1h57l39 1h19l5-4 2-5 2-12v-32l-3-7-5-4-9-2h-227l-116-1z" fill="#F0F5EE"/>
<path transform="translate(1174,821)" d="m0 0h8l8 4 3 3v2h2v2l4 2 3 14v17l-1 3h-2v5l-4 5-3 2h-3l-1 3-8 4-3 1h-12l-11-2-3-2-1-3-5-3-8-9-3-9v-15l3-10 6-8 18-5z" fill="#FCFCFC"/>
<path transform="translate(523,631)" d="m0 0h172l86 1h31l104-1h232l31 1 16 2 4 4 1 4v12h-1l-2-13-1-4-9-1-15-1h-68l-59 1-84 1h-44l-81 2h-99l-25-1h-20l-38-2h-30l-21-1h-118l-83 1-8 4-5 10-3 5h-1l1-7 4-8 6-5 9-2z" fill="#E2E9DF"/>
<path transform="translate(384,841)" d="m0 0h1l2 30 1 7 5 5 6 3 12 2 285 2 192-1 54-1v2l-35 1-7 1-49 1-69 1-74 1h-48l-17-1-7 1h-16l-8-1v2l-7 1-7-3-4 1-3 1-6-1-6 3-16-2-5-1h-3l-4 1-8-2v2l-14 1h-9l-7 1h-6l-2 1-15 1h-51l-10 1-18-2-10-6-5-4-6-3v-2l-3-1-3-5-2-15v-16h2z" fill="#A0D8C2"/>
<path transform="translate(1202,472)" d="m0 0h1v18l-2 23-2 3h-437l-57-1-181-1h-103l-13-1v-1l154-1h405l174 1 6 1 33 1h18l1-2 2-32z" fill="#E1E8DE"/>
<path transform="translate(148,330)" d="m0 0 1 4-2 12-2 29-1 90v582l-1 244h-1l-1-248v-194l-1-12 1-19-1-269-1-41-1-64 1-9v-55l2-19 2-12 3-14z" fill="#5F7477"/>
<path transform="translate(271,196)" d="m0 0 1 3-4 3-5 2-12 7-5 4-13 10-8 6-24 24-7 8-10 11-10 14-13 22-6 16-5 13-2 34-1 39-1 74-1 601v133l1 31 1 10 4 7 3 6 3 7 6-2 1-3 8-6h3v-2l12-7 8-6 11-6 10-6 2 1-3 3-11 6-15 10-5 3-8 5h-2v2l-8 7-11 8-5 3h-2v2h-4l-1-2v-835l1-81 2-29 3-16 9-19 7-14 8-12 10-14 12-15 5-6 7-6 5-6 7-6 1-2 7-4 13-11 16-11 12-7z" fill="#73AD9B"/>
<path transform="translate(1199,503)" d="m0 0h1v9l-2 3h-18l-33-1-9-1-192-1h-544l-3-2h28l42-1h227l58-1h260l33 1 7-1h28l46-1 23 1 16 2 17 1h14z" fill="#F1F5EE"/>
<path transform="translate(395,509)" d="m0 0 13 3 20 1h103l174 1 74 1h297l118 1v1l-36 1h-91l-113 1h-257l-66-1h-35l-50-1-40-1-98-1-10-3z" fill="#C1DECC"/>
<path transform="translate(685,625)" d="m0 0h203l75 1h80l66 1h34l32 2v1h-32l-106-1h-116l-52-1-52 1h-210l-65 1-80 1-49 1-15 1 2-2 9-1 72-2h21l130-2h21z" fill="#A0D8C2"/>
<path transform="translate(882,817)" d="m0 0h40l19 3 8 4 2 3 1 6v27l-3 24h-2l1-19v-32l-3-7-4-3-9-2h-227l-116-1h-181v-1l5-1h390z" fill="#BFDDCB"/>
<path transform="translate(386,861)" d="m0 0 2 4 2 6 1 7 7 6 9 2 29 1 112-1 53 1h333l11-2 2-1-2 4-8 1-49 1-192 1-285-2-15-3-6-4-3-4-1-7z" fill="#E1E8DE"/>
<path transform="translate(399,887)" d="m0 0 12 1 285 2 192-1 54-1v2l-35 1-123 2h-126l-85-1-152-1-20-2z" fill="#C0DDCB"/>
<path transform="translate(271,196)" d="m0 0 1 3-4 3-5 2-12 7-5 4-13 10-8 6-24 24-7 8-10 11-10 14-13 22-6 16-5 13-2 34-1 39-2 142h-1l-1-37v-61l1-81 2-29 3-16 9-19 7-14 8-12 10-14 12-15 5-6 7-6 5-6 7-6 1-2 7-4 13-11 16-11 12-7z" fill="#6E9F93"/>
<path transform="translate(141,574)" d="m0 0h1l1 67v650h-1l-1-248v-194l-1-12 1-19z" fill="#59666D"/>
<path transform="translate(1446,472)" d="m0 0h2v72l1 110v81h-1l-2-8-1-94v-160z" fill="#576169"/>
<path transform="translate(589,819)" d="m0 0h348l9 3 5 5 1 6v27l-3 24h-2l1-19v-32l-3-7-4-3-9-2h-227l-116-1z" fill="#DCE7DB"/>
<path transform="translate(271,196)" d="m0 0 1 3-4 3-5 2-12 7-5 4-13 10-8 6-24 24-7 8-10 11-10 14-13 22-6 16-5 13h-1v-9l9-19 7-14 8-12 10-14 12-15 5-6 7-6 5-6 7-6 1-2 7-4 13-11 16-11 12-7z" fill="#6E9F92"/>
<path transform="translate(216,1243)" d="m0 0 2 1-3 3-11 6-15 10-5 3-8 5h-2v2l-8 7-11 8-3 2h-5l-2-4-1-7v-26h2l1 8 4 7 3 6 3 7 6-2 1-3 8-6h3v-2l12-7 8-6 11-6z" fill="#73AF9C"/>
<path transform="translate(283,1200)" d="m0 0 3 1-7 8-11 7-6 4h-4v2l-30 18-5 4-9 5-4 3-7 4-11 7-19 12h-3l4-2v-2l10-6 9-6 19-12 5-3 5-5 19-12 22-13 15-10z" fill="#6C978E"/>
<path transform="translate(143,1047)" d="m0 0h1l1 40v133l1 31-1 2v26l2 11 3 1h-2v2h-4l-1-2z" fill="#6E9F92"/>
<path transform="translate(460,509)" d="m0 0h87l1 3h-146l-3-2h28z" fill="#F1F5EE"/>
<path transform="translate(1136,835)" d="m0 0 1 4-2 6v15l3 9 9 10 4 2 1 3 6 2 7 1h12l9-4 3-3 7-4 3-3-1 5h-2v2l-5 1-1 3-4 1v2l-10 3-14 1-4-1-11-6-6-6v-3l-3-1-3-5-4-14 1-13h2z" fill="#A2D8C2"/>
<path transform="translate(1164,819)" d="m0 0h18l10 5 9 8 2 7 1 9v12l-1 9-2 4h-2v-5h2v-20l-3-14-3-2v-2h-2l-5-5-6-3-21 1-11 2 2-2z" fill="#C7E0D0"/>
<path transform="translate(188,267)" d="m0 0v3l-8 9-7 11-12 20-6 16-5 13h-1v-9l9-19 7-14 8-12 10-14z" fill="#6FA395"/>
<path transform="translate(141,767)" d="m0 0 2 2v83l-2-1-1-14 1-19z" fill="#565F67"/>
<path transform="translate(271,196)" d="m0 0 1 3-4 3-5 2-12 7-5 4-13 10-6 5h-2l2-4 13-11 16-11 12-7z" fill="#70A596"/>
<path transform="translate(386,861)" d="m0 0 2 4 2 6 1 7 7 6 9 2 27 1 2 2h-25l-15-3-6-4-3-4-1-7z" fill="#E2E9DF"/>
<path transform="translate(384,841)" d="m0 0h1l2 30 1 7 8 8-4-1-5-2-3-5-2-15v-16h2z" fill="#B3DBC8"/>
<path transform="translate(283,1200)" d="m0 0 3 1-7 8-11 7-6 4h-5l-5 3-2-1 22-14z" fill="#6E9D91"/>
<path transform="translate(1447,679)" d="m0 0 2 2v54h-1l-2-8v-39z" fill="#566068"/>
<path transform="translate(1136,835)" d="m0 0 1 4-2 6v15l3 9 9 10 4 2-2 1-5-3-6-5-3-5-4-14 1-13h2z" fill="#CAE1D2"/>
<path transform="translate(1193,826)" d="m0 0 4 2 5 6 2 14v12l-1 9-2 4h-2v-5h2v-20l-3-16z" fill="#C5E0D0"/>
<path transform="translate(216,1243)" d="m0 0 2 1-3 3-11 6-15 10-5 3-8 5-2-1 3-3 16-10 9-6 11-6z" fill="#74B09D"/>
<path transform="translate(212,1247)" d="m0 0h2l-2 4-8 4-10 7-18 11-4 3-2-1 4-2v-2l10-6 9-6z" fill="#6C978E"/>
<path transform="translate(386,842)" d="m0 0h1l1 17 4 11 1 8 4 4 10 3v1h-7l-6-4-4-4-2-9-2-8z" fill="#F2F6EF"/>
<path transform="translate(143,1243)" d="m0 0h1l1 36 2 11 3 1h-2v2h-4l-1-2z" fill="#6C978E"/>
<path transform="translate(1151,882)" d="m0 0 5 1 5 2h17l7-1-2 2-6 2h-12l-11-2-3-2z" fill="#E0EAE0"/>
<path transform="translate(1198,873)" d="m0 0 1 2-1 3h-2v2l-5 1-1 3-4 1v2l-7 2h-14v-1l12-1 9-4 3-3 7-4z" fill="#B7DCC8"/>
<path transform="translate(247,1223)" d="m0 0 3 1-8 5-15 10h-3v2l-6 2 5-5 23-14z" fill="#74B09D"/>
<path transform="translate(399,634)" d="m0 0m-3 1h3v2l-5 3-5 10-3 5h-1l1-7 4-8z" fill="#D6E5D8"/>
<path transform="translate(148,330)" d="m0 0 1 4-1 6h-2l-2 22-2 3-1-7 2-9 3-14z" fill="#5B686F"/>
<path transform="translate(243,213)" d="m0 0 2 1-4 5-13 10-3 1 2-4 13-11z" fill="#6FA194"/>
<path transform="translate(154,320)" d="m0 0h2l-2 10-4 9h-1v-9z" fill="#71A797"/>
<path transform="translate(172,1270)" d="m0 0h2v3l-8 7-4 3-2-1 4-6z" fill="#72A999"/>
<path transform="translate(1174,820)" d="m0 0h11l8 5 6 7-1 2-3-2v-2h-2l-5-5-6-3-8-1z" fill="#DBE7DB"/>
<path transform="translate(164,1280)" d="m0 0 2 1-4 4-8 6h-3l-1 3-4 1-3-1 1-3v2h4v-2l8-5z" fill="#5C6C72"/>
<path transform="translate(166,298)" d="m0 0v3l-7 14-2 5h-2l3-9 6-12z" fill="#70A496"/>
<path transform="translate(931,819)" d="m0 0 10 1 6 3 2 4-1 3-5-6-11-3z" fill="#D5E4D7"/>
<path transform="translate(283,1200)" d="m0 0 3 1-8 6-13 8-2-1 15-10z" fill="#74B09D"/>
<path transform="translate(947,868)" d="m0 0h1v13l-3 5-6 1 6-7z" fill="#EDF2EA"/>
<path transform="translate(1135,866)" d="m0 0 4 4 7 8 5 3-2 1-5-3-6-5-3-5z" fill="#BFDECC"/>
<path transform="translate(271,196)" d="m0 0 1 3-4 3-8 1 4-4z" fill="#6FA194"/>
<path transform="translate(143,1285)" d="m0 0 3 1 1 4 3 1h-2v2h-4l-1-2z" fill="#688C87"/>
<path transform="translate(386,495)" d="m0 0 2 4 6 8 1 2-4-2-5-5-1-4z" fill="#B3DBC8"/>
<path transform="translate(1198,873)" d="m0 0 1 2-1 3h-2v2l-5 1-1 3-4-1 3-3 7-4z" fill="#C7E1D1"/>
<path transform="translate(1447,679)" d="m0 0 2 2v12l-1 3h-2z" fill="#555E66"/>
<path transform="translate(399,634)" d="m0 0m-3 1h3v2l-8 5-3 4 1-5z" fill="#D4E4D7"/>
</svg>
