<?xml version="1.0" encoding="UTF-8"?>
<svg version="1.1" viewBox="0 0 1600 1600" width="100" height="100" xmlns="http://www.w3.org/2000/svg">
<path transform="translate(549,131)" d="m0 0h880l14 7 9 8 3 7v11l-5 21-14 30-14 24-12 21-9 15-6 12-6 10-6 11-11 20-7 11-6 11-16 29-13 23-6 10-18 32-13 22-26 46-11 20-13 23-12 21-12 22-13 23-15 27-14 24-7 13-12 21-9 16-14 25-13 23-8 15-13 23-15 27-7 12-11 19-6 11-9 15-13 23-9 14-11 15-9 11-11 9-5 4h-5l-10-8-9-7-10-11-14-19-9-15-13-22-11-18-13-22-14-24-15-26-15-27-12-21-14-26-9-15-7-11-5-6-5-2-26-3-40-4-61-8-43-7-17-4-13-7-6-5-5-9-1-3v-8l4-16 7-19 15-38 11-29 12-30 8-21 8-17 5-10v-8l-4-10-12-21-9-15-28-48-16-28-17-29-27-45-10-17-12-23-10-19-6-15v-12l4-11 6-8 8-6 10-3zm64 75m736-1-8 1h-287l-205 1-84 1h-123l-14-1h-14l4 8 8 12 13 21 14 24 12 20 15 26 12 22 9 16 20 36 4 5 9-1 16-6 35-12 46-14 108-32 43-12 56-16 37-10 26-6h14l9 4 5 4 7 11 4 11 1 9-4 9-4 6-9 8-8 6-10 7-22 14-15 10-16 10-19 12-23 14-26 16-25 15-44 27-24 15-17 10-17 11-21 13-17 11-23 14-19 12-28 19-17 12-9 6v2l12 1 32 1 33 4 39 6 12 4 9 6 8 10 13 24 9 16 10 17 14 24 17 29 9 15 15 26 14 25 9 16 6 12 5 6 5-5 11-19 14-24 12-21 6-12 14-24 15-27 9-16 12-21 15-27 13-23 10-18 12-21 14-24 15-27 13-23 10-17 6-11 13-23 9-16 12-21 13-23 16-29 15-28 6-10 6-11 15-27 13-23 12-22 9-16 9-17 8-17z"/>
<path transform="translate(678,828)" d="m0 0h7l10 4 11 9 7 7 4 8 2 10-4 10-7 10-11 12-7 8-12 12-1 2h-2l-2 4-7 6-5 6-8 7-4 5h-2l-2 4-12 12-7 8-22 22-7 8-24 26-11 12-13 15-9 11h-2l-2 4-10 11-20 25-14 19-12 16-10 13-12 17-12 19-13 18-12 20-12 19-10 15-11 20-8 13-12 22-14 24-13 23-10 15-8 7-11 4-7 1-18-4-8-4-7-7-4-9v-11l5-19 12-25 13-24 12-22 8-14 12-20 10-17 12-19 11-17 8-12 11-16 8-12 11-16 12-17 12-16 10-13 11-14 10-13 11-14 11-13 9-11 9-10 2-3h2l2-4 9-10 9-11 9-9 1-2h2l2-4 12-12 14-16h2l2-4 17-17 7-8 20-20h2l1-3 8-7 11-11 8-7 11-10 13-9 12-6z"/>
<path transform="translate(485,672)" d="m0 0h13l8 4 7 9 10 21v10l-6 12-11 11-27 18-35 21-19 12-21 12-18 10-23 13-21 12-26 15-28 16-17 10-29 17-15 9-29 17-23 13-21 12-23 12-18 8-5-1-6-5v-2l-4-2-10-15-9-17-1-9 6-9 6-7h2v-2l10-7 22-14 25-14 24-14 26-15 25-15 29-16 28-17 25-15 41-24 45-27 23-13 26-14 23-13 17-6z"/>
<path transform="translate(494,393)" d="m0 0h7l8 3 5 6 5 16 1 8v22l-4 6-6 4-53 18-39 12-47 14-35 10-57 16-26 7-11 2h-5l-8-10-8-16-2-8-1-13-1-9 3-6 9-6 21-9 36-12 40-12 51-15 43-12 48-12z"/>
<path transform="translate(97,504)" d="m0 0h10l8 6 14 21 3 7v15l-7 10-10 8-17 9-21 7-64 16-13 2v-74l16-6 28-8 36-10z"/>
</svg>
