<?xml version="1.0" encoding="UTF-8"?>
<svg version="1.1" viewBox="0 0 1600 1600" width="100" height="100" xmlns="http://www.w3.org/2000/svg">
<path transform="translate(777,190)" d="m0 0h33l33 2 39 4 36 6 29 7 31 9 31 11 29 12 33 16 23 13 24 15 19 13 19 14 14 11 14 12 12 11 8 7 8 8 8 7 1 3h2l7 8 11 12 9 11 10 11 9 12 11 15 16 24 12 19 16 29 16 33 13 32 12 36 8 27 7 33 6 36 4 39v73l-4 48-5 30-8 36-8 29-12 35-14 34-16 33-10 18-16 27-18 27-12 16-9 11-8 8-2 3v5l11 10 4 7 1 4v14l-3 9-11 12-6 4-7 1-10-2-8-7-10-10-6 2-10 7-11 11-13 10-11 9-12 9-18 13-14 10-6 7-6 15-5 4-33 14-17 7-36 13-35 11-38 10-41 9-28 4-42 3h-76l-33-2-34-4-30-5-28-6-31-9-34-12-23-10-23-11-23-13-16-10-16-11-10-8-11-13-6-8-11-11-8-7-12-11-10-9-13-12-20-20-7-8-14-15-9-11-10-13-15-20-14-20-12-20-8-14-8-15-3-3-8 1-16 6-17 2-16-4-14-8-12-11-8-11-6-13-2-8v-16l3-14 6-11 9-13 10-8 23-12h2l-3-15-6-27-6-42-3-35-1-17v-38l3-36 4-31 7-38 9-36 9-29 15-39 13-29 8-16 12-22 12-19 10-16 13-18 13-17 10-13 12-14 9-10 7-8 22-22 17-16 25-20 9-7 16-12 15-10 22-14 15-9 26-14 32-15 26-10 36-12 34-9 35-7 40-5 25-2z" fill="#C4E4EA"/>
<path transform="translate(767,405)" d="m0 0 22 2 20 4 22 6v2h7l5 2v2l7 1 24 12 10 6 16 8 21 10 19 6 16 2h14l12 5 6 9v15l-3 17-9 27-2 12v23l4 27 1 12v24l-3 30-2 16v13l3 5 9 4 12 8 6 7 2 5v24l-4 20-11 33-6 11-14 14-8 7-15 15-4 10-5 15h-2l-2 5-9 15-5 8-5 4-7 10-14 14-8 7-8 6-9 10-6 4-7 7v5l3 2 2 8 8 11 6 5v2l7 2v2l5 2 14 5 10 2 57 20 43 16 28 11 16 8 11 6 10 9 7 8 5 11 7 21 2 12 3 44 1 22 2 70 1 21 2 7v6l-5 12-5 4-33 14-17 7-36 13-35 11-38 10-41 9-28 4-42 3h-76l-33-2-34-4-30-5-28-6-31-9-34-12-23-10-23-11-23-13-16-10-16-11-10-8-11-13-6-8-1-3 7-2 1 9 5-1v-8l-4-10v-20l3-49 5-46 3-15 5-15 9-17 7-9 13-13 13-9 22-12 32-13 18-7 36-12 41-14h6v-2h5v-2l9-5 5-6 2-7 1-18-3-10-5-5-8-7-14-9-13-11-5-5-11-13-12-19-5-12-10-19-14-15-11-13-8-13-8-17-7-27-5-28-1-9 2-10 4-5 4-1 1-3 12-5 16-5 1-1v-7l-4-16-3-14-5-21-1-2-2-28v-35l1-18 5-25 9-21 7-13 13-16 13-12 14-10 19-10 23-11 28-12 30-12 9-3 26-8z" fill="#B37547"/>
<path transform="translate(688,961)" d="m0 0 6 1 15 9 19 7 10 5 11 3 20 2h18l20-5 12-5 16-8 3-2h7l3 3 4 18 9 14 5 5 14 8 20 9 13 4 10 2 9 3v2l11 2 11 4v2l11 2v2l14 3 7 3v2l13 3 12 4v2l9 2 8 3v2l12 3 12 6 10 7 7 7 5 9 5 15 3 22 3 41 4 84 1 39-1 3-9 2-8 5-10 2-10 5-45 15-10 4-37 11-24 6-35 7-24 4-24 3-24 2-20 1h-27l-55-3-38-4-21-3-15-2-18-4-8-3-24-7-24-8-29-12-20-9-35-17-14-7v-2l-9-3-4-3v-2l-6-2-4-5-3-11v-19l3-50 4-57 3-20 5-13 7-11 13-13 11-8 28-13 18-7 38-14 64-22 11-6 11-7 7-7 5-10 2-5 2-10z" fill="#84CAD5"/>
<path transform="translate(664,578)" d="m0 0 7 2 10 5 9 4 25 13 35 14 17 5 32 7 30 4h32l18-6 17-2h18l8 4 3 5 2 13 3 83 1 5 5 2 1 3h2v-2h2v-7l6-8 3-2 10-1 16 2 8 5 6 7 2 12-1 17-4 17-3 6-2 10-1 2h-3l-1 10-6 9-5 5-4 2-2 4-4 5-6 1-5-3-5-1-2 13-4 8-4 15-2 9-5 6-7 14-16 20-7 8-5 4-5 5-21 14-11 6-9 8-18 7-14 8-24 7h-29l-26-7-21-9-19-12-4-3-11-6-18-14-11-9-10-9-4-5v-2l-4-2-7-10-4-5-7-15-4-11-5-14-4-26-1-17-3-21v-21l2-13 5-1v-2h2l2-10 11-44 6-35 8-28 12-26 8-12 7-10 4-3z" fill="#FAD5BA"/>
<path transform="translate(972,661)" d="m0 0h1v11l-1 13v15l2 4 12 3 12 8 6 7 2 5v24l-4 20-11 33-6 11-14 14-8 7-15 15-4 10-5 15h-2l-2 5-9 15-5 8-5 4-7 10-14 14-8 7-8 6-9 10-6 4-7 7v5l3 2 2 8 8 11 6 5v2l7 2v2l5 2 14 5 10 2 57 20 43 16 28 11 16 8 11 6 10 9 7 8 5 11 7 21 2 12 3 44 1 22 2 70 1 21 2 7v6l-5 12-5 4-33 14-17 7-36 13-35 11-38 10-41 9-28 4-42 3h-76l-33-2-34-4-30-5-28-6-31-9-34-12-23-10-23-11-23-13-16-10-16-11-10-8-11-13-6-8-1-3 7-2 1 9 5-1v-8l-4-10v-20l3-49 5-46 3-15 5-15 9-17 7-9 13-13 13-9 22-12 32-13 18-7 36-12 41-14h6v-2l10-3 6-4 5-6 2-6 1-7v-12l-3-12h-2l-4-4v-2l-4-2v-2l5 2 18 10 3 4-5 1-1 19-5 17-6 9-9 7-15 8-30 12-18 7h-3v2l-31 11-29 11-12 5-20 9-10 6-10 8-10 10-8 14-4 14-3 26-4 61-2 35v19l3 11 5 5 4 2 4 4 7 3 2 1v2l5 1 29 15 30 14 29 12 22 8 31 9 11 4 19 4 24 3 34 4 45 3 22 1h27l31-2 21-2 28-4 38-7 21-5 29-8 26-8 16-6 35-12 11-5 9-2 6-4 9-1v-14l-3-71-3-58-3-34-3-16-5-14-7-9-8-7-12-7-17-6v-2l-6-1-11-4v-2l-9-2-5-2-9-2-2-1v-2l-5-1-5-2-9-2-2-1v-2l-9-1-2-1v-2l-6-1-8-3-8-2v-2l-9-2-12-3v-2l-6-1-11-6-7-5-7-3-15-9-7-9-4-7-4-17-4-8 4-6 6-5 9-5 16-11 8-7 5-5 7-8 8-10 6-7 6-9 4-10 5-5 3-12 6-13 3-7 8-6 9-4 8-7 1-2h2l2-4 7-9 2-9 4-3 3-9 5-14 2-8-1-28-2-8-11-11-5-2-22-2 1-4 6-4 3-21 3-12z" fill="#6E4131"/>
<path transform="translate(757,380)" d="m0 0h16l10 1 2 1 14 1 6 3 17 5 26 13 18 7 2 2 13 5 13 6 22 12 15 8 4 3h3l-3-4 16 4 5 2 9 3 10 3 4 4 1 9 5 4 3 5 2 4v9l-3 23-6 21-3 11-2 16v11l4 27 2 15v12l-2 3-1-16-2-10-2-11-2-16v-23l3-15 9-28 2-13v-15l-6-9-11-4h-14l-16-2-24-8-28-14-14-8-19-10-7-3-5-1v-2l-12-2v-2l-11-2-14-4-26-4-13-1-19 5-19 6-9 3-29 12-21 9-24 11-17 9-6 3-16 12-13 12-10 13-9 16-5 14-3 7-4 22-1 18v35l2 28 4 15 4 16 3 15 2 7v7l-5 3-21 7-4 2-8 8-2 10 1 9 6 32 6 23 10 21 8 11 9 11 9 9 8 11 11 23 6 11 8 12 10 12 5 5 13 11 14 9 11 9 4 8 1 5-1 18-3 9-8 7-6 2v2h-5v2l-9 2h-9l-1-4-2-6 6-9 15-5 4-4 1-9 5-2 1-4h-10l-5-1 4 4v3l2 1-6-1-3-2v-3l-4-2-5-5-5-7-4-4-5-7v-2h-2l-5-9-12-17-2-5h-2l-4-8-3-10-5-12-10-17-12-16-7-8-6-7-5-10-1-9v-6h-2v-4l-2-5-2-19-2-1-3-22-4-2-2-5v-16l2-5v-6l6-7 3-2-3-7v-8l5-3 1-9 6-11 1-10v-10l-1-3v-7l1-1-1-28v-10l-1-17v-10l1-12-2-1-5 1v-6l6-2 1-9h-4l2-5 4-6v-6l1-2h2l2 7 3-14 9-17 9-12 5-5 7-8 6-9v-3l-1-3 6-7 6-4 5-5 13-11 5-4h2l1-3 20-14 15-8 26-13 13-4 11-4 17-3z" fill="#B1DAE0"/>
<path transform="translate(688,961)" d="m0 0 6 1 15 9 19 7 10 5 11 3 20 2h18l20-5 12-5 16-8 3-2h7l3 3 4 18 9 14 5 5 14 8 23 10v2l-32 17-17 8-24 9-17 5-29 6-16 1-18-1-32-8-36-12-21-10-1-3-5-1-11-9-4-3 1-3 16-7 14-9 7-7 5-10 2-5 2-10z" fill="#FAC296"/>
<path transform="translate(212,928)" d="m0 0 9 2 16 7 16 9 11 9 8 9 9 13 4 8 4 12v13l-3 13-7 14-12 16-7 7-9 1-16 6-17 2-16-4-14-8-12-11-8-11-6-13-2-8v-16l3-14 6-11 9-13 10-8 23-12h2z" fill="#FED058"/>
<path transform="translate(1305,163)" d="m0 0h17l14 3 16 8 12 12 7 11 6 13 2 12v13l-4 13-5 10-11 13-9 8-16 8-7 2-16 1-14-2-12-5-10-6-10-9-7-11-6-14-2-12v-10l4-15 8-15 7-9 8-8 12-7z" fill="#FAB92B"/>
<path transform="translate(648,597)" d="m0 0 1 2-1 3h-2l-2 5-6 13-5 11-3 9-5 27-4 26-3 16-3 12-6 20-2 18-1 7-2 13-1 19 2 37 2 7 2 12 8 20 5 9 7 10 1 3h2l10 13 13 10 7 6 5 5 12 9 3 1v2l6 2 7 6 14 7 9 6 7 3 21 7 13 3 17 1 12-2 9-3 14-5 13-8 12-7 9-2 5-5 9-5 5-5 5-4 6-2 11-6 8-7 11-14 4-4 4-7 6-10 6-9 3-12 1-14 2-7-1-19v-18l-1-3v-11l-2-42-2-11-1-31-1-53-3-18-7-2h-16l-15 3-3 4-1 8 5 2 8 1 4 5v7l-3 6-5 3-14 2-64 1-9-2-2-2v-7l6-3 9-3h13l10-2h31l15 2 5 3 1 5 2-1v-5l-5-3-18-3-11-1-3-2 2-5 4-4h2l1-2 9-4 10-4 17-3h14l9 3 3 4 2 4 1 8 3 83 1 5 5 2 1 3h2v-2h2v-7l6-8 3-2 10-1 16 2 8 5 6 7 2 12-1 17-4 17-3 6-2 10-1 2h-3l-1 10-6 9-5 5-4 2-2 4-4 5-6 1-5-3-5-1-2 13-4 8-4 15-2 9-5 6-7 14-16 20-7 8-5 4-5 5-21 14-11 6-9 8-18 7-14 8-24 7h-29l-26-7-21-9-19-12-4-3-11-6-18-14-11-9-10-9-4-5v-2l-4-2-7-10-4-5-7-15-4-11-5-14-4-26-1-17-3-21v-21l2-13 5-1v-2h2l2-10 11-44 6-35 8-28 12-26z" fill="#E2BB9E"/>
<path transform="translate(674,201)" d="m0 0h5l-5 6-18 6-10-3-2 5-2 1-1 4-8 4-6 4-3 3-10 5-8 2-9 1-13 2-2 2-8 3-4 4-5-2-1 5-7 4-17 4-7 3-5 5-5 3-2 2h-12l-5 5h-2v6l-3 1-2 1-1 3-4 3h-2l-2 4-7 5h-2v4l-5 3-4 2-4 3h-5v2l-7 6-6 4-4 3-8 4-8 5-11 5h-2l-2 4h-2l-1 4h-2l-2 5-6 4v2h-2l1 7-8 7-5 5-9 8-5 5-4 5-9 7-7 6-1 2h-2l-2 5-10 6-12 13-5 3-4-1-2 4-9 6-5 1 2-4 10-14 13-17 11-14 10-11 9-11 27-27 17-16 25-20 9-7 16-12 15-10 22-14 15-9 26-14 32-15 26-10 36-12 34-9z" fill="#CFF5FA"/>
<path transform="translate(972,661)" d="m0 0h1v11l-1 13v15l2 4 12 3 12 8 6 7 2 5v24l-4 20-11 33-6 11-14 14-8 7-15 15-4 10-5 15h-2l-2 5-9 15-5 8-5 4-7 10-14 14-8 7-8 6-9 10-6 4-7 7v5l3 2 2 8 8 11 6 5v2l7 2v2l5 2 14 5 10 2 57 20 43 16 28 11 16 8 4 4 10 6 9 9 6 10 4 13v5h-5l-4-3-1-6h-2l-7-11-7-6-10-5-8-5-17-6v-2l-6-1-11-4v-2l-9-2-5-2-9-2-2-1v-2l-5-1-5-2-9-2-2-1v-2l-9-1-2-1v-2l-6-1-8-3-8-2v-2l-9-2-12-3v-2l-6-1-11-6-7-5-7-3-15-9-7-9-4-7-4-17-4-8 4-6 6-5 9-5 16-11 8-7 5-5 7-8 8-10 6-7 6-9 4-10 5-5 3-12 6-13 3-7 8-6 9-4 8-7 1-2h2l2-4 7-9 2-9 4-3 3-9 5-14 2-8-1-28-2-8-11-11-5-2-22-2 1-4 6-4 3-21 3-12z" fill="#472D2B"/>
<path transform="translate(665,941)" d="m0 0 5 2 18 10 3 4-5 1-1 19-5 17-6 9-9 7-15 8-30 12-18 7h-3v2l-31 11-29 11-12 5-20 9-10 6-10 8-10 10-8 14-4 14-3 26-4 61-2 35v19l3 11 7 7-5-1-7-4-5-3-1-2-8 2-7-9-1-3 7-2 1 9 5-1v-8l-4-10v-20l3-49 5-46 3-15 5-15 9-17 7-9 13-13 13-9 22-12 32-13 18-7 36-12 41-14h6v-2l10-3 6-4 5-6 2-6 1-7v-12l-3-12h-2l-4-4v-2l-4-2z" fill="#6D4130"/>
<path transform="translate(802,412)" d="m0 0 7 1 16 2 6 2v2h7l5 2v2l7 1 24 12 10 6 16 8 21 10 19 6 16 2h14l12 5 6 9v15l-3 17-9 27-2 12v23l4 27 1 12v24l-3 30-2 16v13l3 5 3 3-6-1-3-5v-15l1-21-5 14-2 9-3 21-7 5-1 3 22 1 6 3 11 11 2 8 1 28-4 15-5 11-2 6-3 2-3 11-8 9-1 2h-2l-2 4-10 8-7 3-6 4-3 7-7 16-3 11-5 5-4 9-7 11-7 7-9 12-6 6h-2l-2 4-8 7-21 14-6 3-5 6-1 3 4 7 4 17 6 10 5 6 11 6 6 4 7 3 11 7 10 4-4 1-14-5-21-10-11-8-8-13-3-6-3-17h-9l-12 7-3-1 14-8 6-2-3-2h2v-2l3-2-2-2 8-7 11-6 15-10 8-6h2l1-3 8-7 10-13 7-8 12-21 3-4 3-14 4-13 2-3 2-10 1-3 7 1 3 2 6-1 6-8 5-4h2l2-4 5-8 2-10h3l2-12 3-6 4-17 1-20-2-9-7-8-6-3-20-2-8 2-3 3-3 5-1 7h-2v2h-2l-7-7-1-3-2-61v-20h1l2 12 3 2-1 12v23l1 11 2-4 4-1 5 12 2 2 1-10 3-1h6l1-4-1-9 3-10 3-12 3-3 4-15 2-14v-13l-4-28-3-1v-45l3-17 4-8 5-16v-17l-1-13-4-2-12-2-14-2-22-3-6-2-11-7-9-3-7-3v-2l-4-1-7-6-10-4-12-7-11-6-10-3-17-6-7-5-10-4z" fill="#886652"/>
<path transform="translate(1101,1148)" d="m0 0h1l2 9v15l2 1 2 3 1-2h-2l1-4 4 1 3 9 2 12 5 10 7-1 3-1v-2l6-2 7 1 17 2 9-1h4l2 11h2v-2h2v5l-6 4-2 4v8l6 7v10l-10 8-11 9-12 9-18 13-14 10-5 4-3-7-4-114-1-18z" fill="#B2DBE1"/>
<path transform="translate(445,1275)" d="m0 0 4 1 4 4 5 2 5 3 5 1 4 4 7 3 2 1v2l5 1 29 15 30 14 29 12 22 8 31 9 11 4 25 5 4 2v5l-4 1-2-4h-2l-1 2-2-1-2 3 9 2 10 1 15 5 12 2 9 2 19-1h16l32-1 2-1 5 1v-2l8 1 1-1h30l5 2 14-1v2l10-1h4l7 1h5 3l2 1v-2h2l2 2 4 2-2 1-33 3-18 1h-76l-33-2-34-4-30-5-28-6-31-9-34-12-23-10-23-11-23-13-16-10-16-11-10-8-9-11z" fill="#442B2A"/>
<path transform="translate(212,928)" d="m0 0 9 2 16 7 16 9 11 9 8 9 9 13 4 8 4 12v13l-3 13-7 14-12 16-7 7-6-2v-2l2-2 3-7 3-3h2v-3l-9 3-6 1 3-3-3-1 1-4-4-1 1-5v-3l7-6-6-2 6-9 3-4 2-13 3-5-2-6h-8l-6-4-10-1-2-1 2-2-5-1-9-9-7-3-9-1-7-4-2-7-2-2 16-8h2z" fill="#FDC06E"/>
<path transform="translate(1e3 751)" d="m0 0 3 1-1 13-1 9v10l1 2-2 13 1 2-4 12h-1v-7l-1 1-2 8-9 16-4 2-1 3-5 4 2 1-4 5-8 5-3 5h-2l-1 7-4 5-3 7-2 5h-1l-1-5-1 7h-2l-1 6-7 10-6 8-7 10-10 13-9 6h-2l-2 4-6 7-9 12-5 9v9l-1 8 4 10 2 1v2l3 1v2l4 1v2l5 1 5 2v3l3-1 8 4v1l-9-1-10-2-11-4-5-3v-2l-7-2-5-5-5-6-6-9-1-6-3-2v-5l10-10 6-4 10-11 10-7 6-7 8-7 5-6 6-8 5-4 7-13 8-13h2l2-9 4-12 4-6 20-20 8-7 6-7h2l2-5 5-12 10-30z" fill="#B2DBE1"/>
<path transform="translate(279,776)" d="m0 0 15 1 12 4 9 8 4 9 1 4v17l-4 12-6 8-10 6-18 2-12-2-10-5-5-5-4-5-4-11v-11l4-13 6-8 7-6 9-4z" fill="#FEFEFE"/>
<path transform="translate(771,398)" d="m0 0 20 1 15 3 17 2 8 4 9 3 15 7 11 4 12 6 19 10 12 6v2l4 1 17 7 13 4 2 2 9 3 9 2 8 1 12 6 6 6 1 3v9l-3 23-6 21-3 11-2 16v11l4 27 2 15v12l-2 3-1-16-2-10-2-11-2-16v-23l3-15 9-28 2-13v-15l-6-9-11-4h-14l-16-2-24-8-28-14-14-8-19-10-7-3-5-1v-2l-12-2v-2l-11-2-14-4-26-4-13-1-19 5-19 6-9 3-29 12-21 9-24 11-17 9-6 3-16 12-13 12-10 13-9 16-5 14-3 7-4 22-1 18v35l2 28 4 15 4 16 3 15 2 7v7l-5 3-4-1 2-3v-10l-2-7-2-12-4-10-2-16-2-30v-25l1-24 4-25 5-16 12-24 8-10 9-11 8-7 6-5 1-2h2v-3l6-4 5-5 10-6 12-5h3l1-2 4-2 14-4 8-4 10-4 11-6 7-2v-2l10-4 18-5 5-3 16-4 7-2z" fill="#84C9D4"/>
<path transform="translate(541,766)" d="m0 0 2 2 7 27 10 21 8 11 9 11 9 9 8 11 11 23 6 11 8 12 10 12 5 5 13 11 14 9 11 9 4 8 1 5-1 18-3 9-8 7-6 2v2h-5v2l-9 2h-9l-1-4-2-6 6-9 15-5 4-4 1-9 5-2 1-4h-10l-5-1 4 4v3l2 1-6-1-3-2v-3l-4-2-5-5-5-7-4-4-5-7v-2h-2l-5-9-12-17-2-5h-2l-4-8-3-10-5-12-10-17-12-16-7-8-6-7-5-10-1-9v-6h-2v-4l-2-5-2-19-2-1z" fill="#B1DAE0"/>
<path transform="translate(1094,1196)" d="m0 0 3 2 2 5 1 14 2 62 1 12 2 8v9l-4 9-6 4-29 12-16 7-39 14-35 11h-10l-3 1-3-3 2-4-4 1-5 1-9 3 2 3-5 2v2l-9 2-1-4 8-1v-2l-4 1-2 1h-8l-1 2-9-1v2h-2l1-5 1-3 32-7 33-9 60-20 22-8 15-6 9-3 4-2 1-6-2-82v-14l2-5h2z" fill="#472D2B"/>
<path transform="translate(574,717)" d="m0 0h8l6 2 4 7-1 6-4 6-6 2-2 6 3 9 5 9 3 15 3 14 1 6v32l-2 3h-2v2h-6l-6-7-8-16-9-17-4-11-3-13-3-30-2-3-1-9 11-9 10-3z" fill="#F9D4B9"/>
<path transform="translate(648,597)" d="m0 0 1 2-1 3h-2l-2 5-6 13-5 11-3 9-5 27-4 26-3 16-3 12-6 20-2 18-1 7-2 13-1 19 2 37 2 7 2 12 8 20 5 9 7 10 1 3h2l10 13 13 10 7 6 5 5 12 9 3 1v2l6 2 7 6 14 7 9 6 7 3 21 7 13 3 17 1 12-2 9-3 14-5 13-8 12-7 9-2 5-5 9-5 5-5 5-4 6-2 11-6 6-5 3-1 5-5-2 5-8 8-11 9-24 15-5 3-8 7-18 7-14 8-24 7h-29l-26-7-21-9-19-12-4-3-11-6-18-14-11-9-10-9-4-5v-2l-4-2-7-10-4-5-7-15-4-11-5-14-4-26-1-17-3-21v-21l2-13 5-1v-2h2l2-10 11-44 6-35 8-28 12-26z" fill="#E3BB9D"/>
<path transform="translate(741,412)" d="m0 0h8l-4 3-16 7-19 6-20 9-20 8-25 12-18 10-9 7-10 9-7 8h-2v2h-2l-2 4-5 7-11 25-5 14-3 21-1 13v42l3 33 4 22 8 19 4 12 2 3 2 11-7-2h-15l-10 2-10 7-6 3h-5l-1-7 12-12 24-8 1-1v-7l-4-16-3-14-5-21-1-2-2-28v-35l1-18 5-25 9-21 7-13 13-16 13-12 14-10 19-10 23-11 28-12 30-12 9-3z" fill="#442B2A"/>
<path transform="translate(622,1012)" d="m0 0 2 1-4 3-12 3-32 11-15 6-26 10-15 7-12 6-14 9-4 3h-2v2l-6 5-5 5-7 8-8 13-2 6-2 15h4l2-9 7-14 7-9 7-7 11-8 10-6 28-12 31-11 3 1-29 11-12 5-20 9-10 6-10 8-10 10-8 14-4 14-3 26-4 61-2 35v19l3 11 7 7-5-1-7-4-5-3-1-2-8 2-7-9-1-3 7-2 1 9 5-1v-8l-4-10v-20l3-49 5-46 3-15 5-15 9-17 7-9 13-13 13-9 22-12 32-13 18-7 36-12z" fill="#928071"/>
<path transform="translate(1056,1068)" d="m0 0 6 2 10 7 10 10 7 14 7 21 2 12 3 44 1 22 2 70 1 21 2 7v6l-2 2-3-15-1-12-2-62-1-14-3-6-2 4h-2l-1 5 1 58 1 41-3 5-10 3-12 5-24 9-37 12-11 4-22 7-35 9-44 9-33 5-21 2-19 1h-50l-49-2-49-7-5-1v-1l13 1 34 4 45 3 22 1h27l31-2 21-2 28-4 38-7 21-5 29-8 26-8 16-6 35-12 11-5 9-2 6-4 9-1v-14l-3-71-3-58-3-34-3-16-5-14-7-9-4-5 4 2 7 6 5 8v2h2l2 6 3 2 5 1-3-12-4-9-6-9-10-9-10-6z" fill="#876552"/>
<path transform="translate(1377,341)" d="m0 0 9 1 14 9 6 9 2 10v8l-3 8-7 8-13 6-9 2-9-3-6-4-8-9-6-10-2-7 3-6 14-15 12-6z" fill="#84CBD6"/>
<path transform="translate(378,1361)" d="m0 0h16l9 3 8 5 4 6 2 7v10l-3 11-6 8-6 5-7 3h-11l-10-4-10-9-5-10-2-10 3-9 9-10 6-5z" fill="#84CAD5"/>
<path transform="translate(1244,1181)" d="m0 0 5 1 10 9 4 7 1 4v14l-3 9-11 12-6 4-7 1-10-2-8-7-10-10-6 2-5 2 7-14 10-16 7-7 10-5z" fill="#FED059"/>
<path transform="translate(844,847)" d="m0 0 6 1 1 5-9 8-15 6-13 6-10 4-9 2-8 1h-15l-22-2-16-5-9-3-7-4-7-2v-2l-6-1-7-5-1-5 2-2 8 1 4 1 28 6 12 2 12 1h21l20-3 17-6z" fill="#E3BB9D"/>
<path transform="translate(664,578)" d="m0 0 7 2 10 5 9 4 25 13 35 14 17 5 32 7 30 4h32l18-6 17-2h18l8 4 3 5-1 4-3-6-9-3h-16l-16 3-17 8-6 3-4 7 28 4 8 3 2 4-1 4-2 2-3-1 2-1v-5l-10-3-10-1h-31l-10 2h-13l-10 4h-2v7h-1l-1-9 5-4 3-2h3v-2l3-3-1-4-4-1-8-5-10-4-9-4-7-1-9-3-11-3-12-5-15-6-13-5-16-6-5-2v-2l-3 1-2-1v-2l-6-2-16-8-7-1-6 8-3 5-3 1 2-5 8-11 4-3z" fill="#E0BEA3"/>
<path transform="translate(905,1011)" d="m0 0 7 1 57 20 43 16 28 11 16 8 4 4 10 6 9 9 6 10 4 13v5h-5l-4-3-1-6h-2l-7-11-7-6-10-5-8-5-17-6v-2l-6-1v-3l-4-1v-2l-4-2-10-3-15-5-6-3v-2l-5-1-18-7-13-4-9-2-12-6h-2v-2l-6-1-9-4v-3l8-1v-2l-9-2z" fill="#704534"/>
<path transform="translate(1385,712)" d="m0 0h1l3 24 1 12v73l-4 48-4 25-1 3h-2l-3-8-1-11v-12l1-3h-2v-8l-4-16v-10l4-1-2-16v-5l-3 1-3-2 1-3 4 2-1-10-1-3 1-9-1-4 4-1 2 1 1-11 2 2 1 2 1-2 3 2v-19l1-32z" fill="#B2DBE1"/>
<path transform="translate(988,499)" d="m0 0 2 3v24l-2 16-2 6 1 6-1 4-1 17-1 2 1 9 3 13 1 7 1 6-1 1v39l-2 16v8l5 16 3 6v6l-1 5 5 5 5 6-4-2-5-4-11-7-7-3-3-3-1-3v-13l4-34 1-12v-28l2 2 1 13v-12l-6-42v-11l3-21 8-27z" fill="#B1DAE0"/>
<path transform="translate(1207,450)" d="m0 0h9l12 3 8 7 5 10v11l-4 6-8 7-7 3h-11l-10-4-13-12-1-2v-9l5-10 10-8z" fill="#FEFEFE"/>
<path transform="translate(1e3 757)" d="m0 0h1v8l-4 21-4 10-6 12-6 14-6 8h-2l-2 4-9 7-3 3-6 9-6 10-4 2-2 5-3 7-4 13-5 8h-2l-1 4h-2l-2 6-6 8-7 6-7 8-11 9-5 5-10 7h-2l-2 5-2 3-2 6-2 4 2 11 4 6v2h2l1 8 4 3 5 2 7 4 8 3v2l2 1-9-2-9-4-4-2v-2l-7-2-5-5-5-6-6-9-1-6-3-2v-5l10-10 6-4 10-11 10-7 6-7 8-7 5-6 6-8 5-4 7-13 8-13h2l2-9 4-12 4-6 20-20 8-7 6-7h2l2-5 5-12 10-30z" fill="#84CAD5"/>
<path transform="translate(483,1296)" d="m0 0 16 8 39 19 19 8 25 10 30 10 22 6-4 1h-6l-1 1 4 4-1 2 8-1 2 2-7 1-8-2-5-1-13-2-9-4 1-4h-7l-6-3h-7v-2l-10-3-5-2-1-3-6-2-6-1-2 2 7 3v3l-4-2-7-2-1-3-4-1v-2h3l-3-3-10-3-4-4-7-2v-2h-8l-12-6-1-3-9-3-6-4v-2h-2v-4l-5-1v-2h6l3 2h3z" fill="#704635"/>
<path transform="translate(574,717)" d="m0 0h8l6 2 4 7-1 6-4 6-6 2-2 6 3 9 5 9 3 15 3 14 1 6v32l-2 3h-2v2h-6l-6-7-7-14 1-2 10 15 4 1 3-9v-15l-3-16-3-13-3-5-2-1-1-3-4-4-2-11v-4l-3-1v-11h-5l-3 3-6 1 1 18 3 21 5 16-1 2-5-12-3-13-3-30-2-3-1-9 11-9 10-3z" fill="#F9C195"/>
<path transform="translate(691,956)" d="m0 0 11 3 10 6 25 10 20 5h29l24-7 9-5 12-6 11-4 4 1-4 2 2 5-11 4-9 5-3 3-9 4-16 5-9 2h-18l-20-2-16-5-12-6-12-4-17-10-4-1v15l-3 12-4 10-9 10-9 6-14 8-38 13-8 3-4-1 16-6 30-12 16-8 11-7 4-5 4-7 4-15 1-17 1-2z" fill="#947F6E"/>
<path transform="translate(802,412)" d="m0 0 7 1 16 2 6 2v2h7l5 2v2l7 1 24 12 10 6 16 8 21 10 19 6 29 3 11 5v3l-4 1-17-1-14-2-22-3-6-2-11-7-9-3-7-3v-2l-4-1-7-6-10-4-12-7-11-6-10-3-17-6-7-5-10-4z" fill="#452D2B"/>
<path transform="translate(972,661)" d="m0 0h1v11l-1 13v15l2 4 12 3 12 8 6 7 2 5v24l-4 20-9 27-1-4 7-21 4-18 1-9h-2l-2 9h-2v9l-2 14-5 11-5 12-3 4-4 9-1 2h-2v2h-2l2-4 3-4 2-9 4-3 3-9 5-14 2-8-1-28-2-8-11-11-5-2-22-2 1-4 6-4 3-21 3-12z" fill="#6B3F2F"/>
<path transform="translate(665,941)" d="m0 0 5 2 18 10 3 4-5 1-1 19-5 17-5 8-11 6-8 4h-3v2l-13 6-13 4h-20l-11 4-16 5-4-1 2-2 7-2 6-3h2v-2l21-7 8-2 2-3 24-8h6v-2l10-3 6-4 5-6 2-6 1-7v-12l-3-12h-2l-4-4v-2l-4-2z" fill="#462C2A"/>
<path transform="translate(622,1012)" d="m0 0 2 1-4 3-12 3-32 11-15 6-26 10-15 7-12 6-14 9-4 3h-2v2l-6 5-5 5-7 8-8 13-2 6-2 15h4l2-9 6-12 1 2-6 14-2 8-2 15-5 60-1 5-5 1-1-3-1-24 2-31 1-4 1-16 6-24 8-15 7-9 13-13 13-9 22-12 32-13 18-7 36-12z" fill="#876552"/>
<path transform="translate(658,569)" d="m0 0 9 1 1 2 3 1v2l5 2 3 2v2l8 1 11 5 15 8 30 12 26 8 36 9v1h-12l-32-7-17-6-26-10-19-10-21-10-10-4h-6l-5 5-10 15-5 8-11 24-7 23-1-4 1-5-1-5 2-7 4-13 4-12 5-12 4-10 7-11 8-3z" fill="#8E6A53"/>
<path transform="translate(775,624)" d="m0 0 11 1 13 3 30 4h32l18-6 17-2h18l8 4 3 5-1 4-3-6-9-3h-16l-16 3-17 8-6 3-4 7 28 4 8 3 2 4-1 4-2 2-3-1 2-1v-5l-10-3-10-1h-31l-10 2h-13l-4 2-4-1 7-3 6-1h8l4-3 19-1 1-3-14-2-11-2-2-1-2-4-10-4-21-5-15-4z" fill="#C4E4EA"/>
<path transform="translate(899,912)" d="m0 0 1 2-7 8-5 4-5 5-21 14-11 6-9 8-18 7-14 8-24 7h-29l-26-7-21-9-19-12-4-3-11-6-4-3v-2h2v2l6 2 14 9 7 3 7 1 10 7 7 3 21 7 13 3 17 1 12-2 9-3 14-5 13-8 12-7 9-2 5-5 9-5 5-5 5-4 6-2 11-6 6-5 3-1z" fill="#E0BFA5"/>
<path transform="translate(1073,1101)" d="m0 0 3 3 5 16 3 20 2 26 2 45 1 25v28h2l1 41-3 5-10 3-12 5-24 9-37 12-11 4-22 7-35 9-44 9-33 5-21 2-19 1h-50l-49-2-49-7-5-1v-1l13 1 34 4 45 3 22 1h27l31-2 21-2 28-4 38-7 21-5 29-8 26-8 16-6 35-12 11-5 9-2 6-4 9-1v-14l-3-71-3-58-3-34-3-16-4-11z" fill="#8D7362"/>
<path transform="translate(662,577)" d="m0 0h6l10 4 23 11 17 9 26 10 21 7 28 6h7l-11-3v-1l9 1 17 3 13 2h26l38-6 21-2h9l4 4 1 15-2 1-3-9-8-4h-18l-21 3-14 5h-32l-36-5-26-6-17-5-37-15-23-12-11-5-13-6-7 1z" fill="#938172"/>
<path transform="translate(836,654)" d="m0 0h31l15 2 5 3 1 5-7 3-26 2h-26l-12 1h-12l-4-2v-7l3-2 9-3h13z" fill="#938172"/>
<path transform="translate(688,688)" d="m0 0h8l12 6 4 6 3 9 1 7-2 10-7 6-3 2h-15l-6-2-1-7 9-6h2l1-12-6-3-2-4v-9z" fill="#432A29"/>
<path transform="translate(1094,1196)" d="m0 0 3 2 2 5 1 14 2 62 1 12 2 8v9h-1l-2-11h-4l-4-1-1 10-2 2-2-88v-14l2-5h2z" fill="#6E4130"/>
<path transform="translate(445,1275)" d="m0 0 4 1 4 4 5 2 5 3 5 1 4 4 7 3 2 1v2h2v2l2 1-4 1-3-2-6-1v2l5 1v4h2l3 3 4 3 8 3 2 3 11 5h6l2 1v2l7 1 1 3 5 2 10 3 1 3h-3l1 2 3 1 1 2 7 2 4 1-8-4 3-3 8 1 6 3v6l-3 4-9-3-28-13-26-14-19-12-16-11-10-8-9-11z" fill="#472D2C"/>
<path transform="translate(1233,386)" d="m0 0 4 1 11 12 9 11 8 10v12l-5-1-6-3-4-3v-2l-4-1-7-1-4-3-6-1-1 4-3-1-3-6-6-2-2-8h5l4-2 1 1 1-3 4-1v-3h2l-1-7z" fill="#B2DBE1"/>
<path transform="translate(845,689)" d="m0 0h10l5 5 7 16v13l-6 7-11 4h-12l-6-3v-7l10-5 3-6-1-7-2-4v-9z" fill="#442A29"/>
<path transform="translate(687,655)" d="m0 0h23l23 2 5 3 1 5-3 2-11 2h-68l-2-1 1-7 5-3 13-2z" fill="#876552"/>
<path transform="translate(963,468)" d="m0 0h7l12 5 6 9v15l-3 17-1 3h-2l-2 7h-2l-1 8-3 9-2 10-1 40-1 4-5-1v-48l3-13 4-9 4-13v-17l-1-13-4-2-9-1v-1h18l-1-3-10-4-6-1z" fill="#856452"/>
<path transform="translate(564,819)" d="m0 0 5 5 12 11 4 3 9-1 2 4 3 9 3 11 2 3 2 9 3 5 3 9 4 7 5 5 8 11 12 11 7 6 6 4 12 9 1 4 2 1v2l4 2v2h2l3 8 1 4v12l-2 10-4 7-7 6-4 2-3-1 9-5 5-6 2-7 1-18-3-10-5-5-8-7-14-9-13-11-5-5-11-13-12-19-5-12-10-19-14-15-11-13z" fill="#876654"/>
<path transform="translate(706,645)" d="m0 0 17 1 13 4 8 7v8l-6 4-10 2-51 1-19-1-5-3 1-7 5-5 13-3 13-4 13-3zm-19 10-22 2-7 3-3 3v5l2 1h68l13-3 1-5-3-3-5-1-21-2z" fill="#E2BB9E"/>
<path transform="translate(637,1025)" d="m0 0h3l5 5 12 9 3 1 3 3 19 9 29 10 30 8 9 2 19 1 15-1 29-6 26-8 24-10 20-10 18-10h2l1-2 13 4v1h-13l-15 7-16 8-21 10-11 5-7 3-17 5-17 4-23 4h-17l-23-5-26-7-24-8-23-10-16-9-11-7h-15l3-2z" fill="#B6DDE3"/>
<path transform="translate(591,726)" d="m0 0 1 4-5 8-6 2-2 6 3 9 5 9 3 15 3 14 1 6v32l-2 3h-2v2h-6l-6-7-7-14 1-2 10 15 4 1 3-9v-15l-3-16-3-13-3-5-2-1-1-3-4-4-1-7v-14l3-5 1-3 4 1v2l6-2z" fill="#E4BB9C"/>
<path transform="translate(930,861)" d="m0 0 2 2-1 11-6 7-4 9-7 11-7 7-9 12-6 6h-2l-2 4-8 7-21 14-6 3-5 6-1 3 4 7 4 17 6 10 5 6 11 6 6 4 7 3 11 7 10 4-4 1-14-5-21-10-11-8-8-13-3-6-3-17h-9l-12 7-3-1 14-8 6-2-3-2h2v-2l3-2-2-2 8-7 11-6 15-10 8-6h2l1-3 8-7 10-13 7-8 12-21 3-4z" fill="#AD7348"/>
<path transform="translate(583,499)" d="m0 0 1 2-9 16-5 14-3 7-4 22-1 18v35l2 28 4 15 4 16 3 15 2 7v7l-5 3-4-1 2-3v-10l-2-7-2-12-4-10-2-16-2-30v-25l1-24 4-25 5-16 11-22z" fill="#86B9BE"/>
<path transform="translate(844,968)" d="m0 0 3 1 3 11 2 9 9 14 5 5 14 8 20 9 1 2-10 5-11 2-5 2h-7l-3-2v-11l1-6-1-3h-2l-5-6-4-10-5-7-2-9-1-9-3-4z" fill="#FDBF6B"/>
<path transform="translate(625,466)" d="m0 0 2 1-9 7-10 9-7 8h-2v2h-2l-2 4-5 7-11 25-5 14-3 21-1 13v42l3 33 4 22 8 19 4 12 2 3 2 11-7-2 4-1-5-12-3-9-6-13-4-17-4-33-1-15v-40l2-25 3-15 7-20 6-11 8-11 11-12 12-11z" fill="#6E4130"/>
<path transform="translate(608,889)" d="m0 0 4 4 7 11 10 12 5 5 13 11 14 9 11 9 4 8 1 5-1 18-3 9-8 7-6 2v2h-5v2h-3v-2l14-7 3-7 2-10 1-7v-11l-2-7-4-1v-2l-4-1-4-3-7-2-6-7-7-6-12-8-4-8-4-5-8-16z" fill="#84CAD5"/>
<path transform="translate(972,661)" d="m0 0h1v11l-1 13v15l2 4 13 5 1 1v5l-1 4-33-3 1-4 6-4 3-21 3-12z" fill="#6E4130"/>
<path transform="translate(1233,1189)" d="m0 0h11l3 5h5l4-4 3 1 3 5v4l-7 1-7-1h-6l-6 4-3 1v3l-8 5h-10l-1-4 1-6 4-6 7-6z" fill="#FAB92B"/>
<path transform="translate(547,712)" d="m0 0 2 1-3 2zm-3 3 2 1-6 6 1 6h4l-2 5 1 11 4 13 2 10 3 5 1 9 1 1 1 16 3 10 2 6-4-2-8-17-7-27-5-28-1-9 2-10 4-5z" fill="#938172"/>
<path transform="translate(689,685)" d="m0 0 6 1 12 3 5 3 5 10 2 8v13l-3 6-6 5-7 3h-9l-12-2-4-4-3-5 1-5 9-2 1-7-2-6-1-17 3-3zm-1 3-2 3v9l3 5 5 2-1 12-5 2-6 4 1 7 6 2h15l9-7 2-3 1-9-2-8-3-9-5-5-10-5z" fill="#E0BDA2"/>
<path transform="translate(811,191)" d="m0 0h21l43 4 32 5 2 2h-23l-7-1h-19l-7-1h-27l-4-1-10-1-3-3z" fill="#B2DBE1"/>
<path transform="translate(772,801)" d="m0 0h13l9 2 3 2v7l-3 3-9 1-14-1-13-1-6-3 1-5 5-3 3-1z" fill="#E3BB9D"/>
<path transform="translate(1222,180)" d="m0 0h8l6 5 3 5v9l-4 6-2 2h-7l-6-3-5-6-2-7 4-7z" fill="#FAB92D"/>
<path transform="translate(840,658)" d="m0 0h36l7 3v3l-6 1-24 1h-8l-8-1-21 3h-13v-6l3-2h15z" fill="#876552"/>
<path transform="translate(686,958)" d="m0 0 7 1 10 6 14 7 19 8 13 4 22 3h20l-4 2h-18l-20-2-16-5-12-6-12-4-17-10-4-1v15l-3 12-4 10-9 10-9 6-14 8-38 13-8 3-4-1 16-6 30-12 16-8 11-7 4-5 4-7 4-15 1-17z" fill="#B17547"/>
<path transform="translate(955,1352)" d="m0 0 4 1-9 3-26 6-41 8-32 4-30 2h-50l-49-2-49-7-5-1v-1l13 1 34 4 45 3 22 1h27l31-2 21-2 28-4 38-7 21-5z" fill="#8E7665"/>
<path transform="translate(958,786)" d="m0 0 7 4h7l2 6v10l-3 7-6 5-8-2-3 1v2l-4-1v-10h8l-1-7-1-11z" fill="#FAD5BA"/>
<path transform="translate(1e3 1336)" d="m0 0 3 1-10 4-37 11-24 6-35 7-24 4-24 3-24 2-20 1h-27l-41-2v-1h73l28-2 20-2 24-3 31-6 34-8 33-9z" fill="#C4E4EA"/>
<path transform="translate(688,688)" d="m0 0h8l12 6 4 6 3 9 1 7-2 10-7 6-3 2h-15l-6-2-1-7 9-6h2l1-12-6-3-2-4v-9zm2 2-2 3 1 7 2 2 5 2 3 4v5l-4 8-9 4-1 4 4 3h11l9-5 2-2v-14l-4-4-2-9-4-5-5-3z" fill="#917C6C"/>
<path transform="translate(927,648)" d="m0 0h1l2 12 3 2-1 12v23l1 22 2 1 1 1 7 1 1-3 2-1h6l-2 1v2l-5 4-3 5-1 7h-2v2h-2l-7-7-1-3-2-61z" fill="#938070"/>
<path transform="translate(771,921)" d="m0 0h12l7 2 2 2v6l-7 5-10 2h-10l-5-5-1-7 5-4z" fill="#E3BB9D"/>
<path transform="translate(846,685)" d="m0 0 10 1 5 4 5 12 4 10v10l-3 6-6 5-9 3h-8l-10-2-5-4v-7l3-3 6-2 4-1 2-7-6-1-4-7 1-10 3-1v-2zm-1 4-3 4v9l3 7-1 6-3 5-9 4v7l6 3h12l11-4 6-7v-13l-4-9-5-10-3-2z" fill="#E3BB9C"/>
<path transform="translate(675,579)" d="m0 0 12 3 11 5 15 8 30 12 26 8 36 9v1h-12l-32-7-17-6-26-10-19-10-23-11z" fill="#6D402F"/>
<path transform="translate(613,895)" d="m0 0 5 5-1-3 1-2 10 14 13 12 7 6 6 4 12 9 1 4 2 1v2l4 2v2h2l3 8 1 4v12l-2 10-4 7-7 6-4 2-3-1 9-5 5-6 2-7 1-18-3-10-5-5-8-7-14-9-13-11-5-5-11-13-4-6z" fill="#8B6D5B"/>
<path transform="translate(802,412)" d="m0 0 7 1 5 2 8 5 23 8 19 9 22 12 16 9 12 5 10 5 17 4 11 1 3 2h-10l-22-3-6-2-11-7-9-3-7-3v-2l-4-1-7-6-10-4-12-7-11-6-10-3-17-6-7-5-10-4z" fill="#6E4130"/>
<path transform="translate(977,521)" d="m0 0 2 3-5 17-2 10-1 40-1 4-5-1v-33l3-21 4-9 3-6z" fill="#412929"/>
<path transform="translate(978,797)" d="m0 0 3 1-1 3-2 9-4 8-4 5h-2l-2 4-10 8-7 3-6 4-3 7-7 16-1 5h-1v-12l4-13 2-3 2-10 1-3 7 1 3 2 6-1 6-8 5-4h2l2-4 5-8z" fill="#9E7D63"/>
<path transform="translate(936,878)" d="m0 0 1 2-9 16-5 9-9 10-8 10-14 13-11 7-6 8-10 7-1 1 1 12-1 7 7 11 5 4-1 2-8-7-4-6-3-5-1-6-3-2v-5l10-10 6-4 10-11 10-7 6-7 8-7 5-6 6-8 5-4 7-13z" fill="#907969"/>
<path transform="translate(674,1047)" d="m0 0 6 1 9 4 16 6 18 5 10 3 15 3 3 1 12 1h15l22-4 21-5 24-8 15-6 3 1-27 11-23 7-29 6-16 1-18-1-32-8-36-12-8-5z" fill="#E3BB9D"/>
<path transform="translate(844,965)" d="m0 0 5 1 3 8 4 15 7 11 5 4 14 8 8 4 11 7 10 4-4 1-14-5-21-10-11-8-8-13-3-6-3-17h-9l-12 7-3-1 14-8z" fill="#B27547"/>
<path transform="translate(982,517)" d="m0 0 1 3-7 21-2 12v23l4 27 1 12v24l-3 30-2 16v13l3 5 3 3-6-1-3-5v-15l3-21 2-27v-21l-1-2v-12l-2-8-1-11v-36l3-12 3-11h2z" fill="#938172"/>
<path transform="translate(611,862)" d="m0 0 3 4 4 9 7 13 5 6v2h2l10 13 13 10 7 6 5 5 12 9 3 1v2l6 2 7 6 10 5-4 1-10-5-11-7-6-3v-2l-4 1-2-4-4-3v-2l-4-2-13-11-10-9-7-9-8-12-8-16-3-7z" fill="#FBC194"/>
<path transform="translate(622,1012)" d="m0 0 2 1-4 3-12 3-32 11-15 6-26 10-15 7-12 6-14 9-4 3h-2v2l-6 5-5 5-7 8-8 13-3 7-1-4 8-15 7-9 13-13 13-9 22-12 32-13 18-7 36-12z" fill="#8D715F"/>
<path transform="translate(738,865)" d="m0 0h10l21 2 25-1h11v3l-15 4-23 1-19-2-8-4z" fill="#C4E4EA"/>
<path transform="translate(981,471)" d="m0 0 7 6 2 4v9l-3 23-6 21-3 11-2 16v11l4 27 2 15v12l-2 3-1-16-2-10-2-11-2-16v-23l3-15 9-28 2-13v-15l-6-9z" fill="#84CBD6"/>
<path transform="translate(913,618)" d="m0 0h9l4 4-1 4-4-4-6-1h-14l-15 2-15 3-17 3-10 1h-20l-20-2-2-1-14-2v-1h12l-11-3v-1l9 1 17 3 13 2h26l38-6z" fill="#886653"/>
<path transform="translate(687,655)" d="m0 0h23l23 2 5 3 1 5-3 2-11 2h-68v-1l28-2h44l7-1-1-3-6-2-25-2-27 1h-16l4-2z" fill="#938172"/>
<path transform="translate(1090,1107)" d="m0 0 2 2 5 17 3 36 2 38 2 70 1 21 2 7v6l-2 2-3-15-1-12-1-72-4-68-1-11-5-18z" fill="#938172"/>
<path transform="translate(903,1026)" d="m0 0 14 4v1h-13l-15 7-16 8-21 10-11 5-7 3-17 5-17 4h-8l3-3 25-6 24-8 21-9 33-17 5-2z" fill="#B6DDE3"/>
<path transform="translate(658,569)" d="m0 0 9 1 1 2 3 1v2l5 2 3 3-5 1-6-3h-6l-5 5-4 2-9 14-3 1-1-3 5-11 1-8 5-5 6-2z" fill="#886653"/>
<path transform="translate(662,577)" d="m0 0h6l10 4 23 11 17 9 26 10 21 7 23 5-2 2-11-1-19-5-31-12-18-8-18-10-17-7-6-3-7 1z" fill="#8F7767"/>
<path transform="translate(597,1351)" d="m0 0h2v2l7-1h10l18 5-4 1h-6l-1 1 4 4-1 2 8-1 2 2-7 1-8-2-5-1-13-2-9-4v-2l3-1z" fill="#704535"/>
<path transform="translate(993,490)" d="m0 0h5l1 2h-2l2 4h1v20l-4 2-1 8-1 3v15l-2 18 1 7-4 5-1-14 1-26 3-16 3-5 1-13-3-6-2-1v-2z" fill="#B2DBE1"/>
<path transform="translate(1073,1101)" d="m0 0 3 3 5 16 3 20 2 26 2 45 1 25v30h-1l-5-101-3-34-3-16-4-11z" fill="#938172"/>
<path transform="translate(585,694)" d="m0 0 3 4 5 9v5l7 1 1 4-2 5v3l3 1-1 2 2 1-6 12h-2v3l-5 1v-3l-2-1 4-9 2-7 2-1-5-3-1-3 2-1-3-11-4-9z" fill="#886652"/>
<path transform="translate(878,937)" d="m0 0h2v2l-9 6-20 14-1 5 3 6 4 17 6 10 7 6 9 4 8 5 8 4 6 4 4 5-6-2-12-8-7-3-15-9-7-9-4-7-4-17-4-8 4-6 6-5 9-5z" fill="#6E4130"/>
<path transform="translate(1374,921)" d="m0 0h1l-1 10-8 30-3 8-3-1 1-20 5-16z" fill="#B4DCE2"/>
<path transform="translate(741,412)" d="m0 0h8l-4 3-16 7-19 6-20 9-20 8-23 11-2-1 19-10 29-12 9-4h2l2-4 17-7 9-3z" fill="#5B382E"/>
<path transform="translate(704,709)" d="m0 0 5 4-1 9 1 3h-3l-2 5-4 2h-11l-4-3 1-4 10-2 4-9 3-1z" fill="#462C29"/>
<path transform="translate(845,689)" d="m0 0h10l5 5 7 16v13l-6 7-11 4h-12l-3-2h14l10-4 5-6v-10l-5-10-2-2-2-8h-9l2 20-4 7-1-2 2-4-1-7-2-4v-9z" fill="#AD7348"/>
<path transform="translate(991,730)" d="m0 0 3 3 1 6 1 28-4 15-5 11-2 6-3 2-3 11-3 2 2-8 1-7 4-2 2-11 4-14 2-6 2-21z" fill="#8A6C5A"/>
<path transform="translate(1244,1181)" d="m0 0 5 1 8 7-5 6h-5l-3-5h-11l-8 3-6 3-5 6-1-2 7-8 9-6z" fill="#FECF5D"/>
<path transform="translate(961,740)" d="m0 0h6l2 2 2 6v9l-2 10-3-1-1-4-5-1-2-6v-8l-1-2h4l-1-3z" fill="#94806F"/>
<path transform="translate(953,717)" d="m0 0 26 1 8 7 4 4 2 6 1 12-2 19-2 7-7 24h-2l2-12 3-6 4-17 1-20-2-9-7-8-6-3-20-2h-6z" fill="#B17547"/>
<path transform="translate(668,1365)" d="m0 0 13 1 34 4 45 3 22 1 39 1v1h-50l-49-2-49-7-5-1z" fill="#8D7261"/>
<path transform="translate(838,968)" d="m0 0h6l-3 2-18 10-20 9-15 3h-13l-7-1v-2h-5v-1h24l20-5 12-5 16-8z" fill="#E3BB9D"/>
<path transform="translate(694,963)" d="m0 0 5 2 10 6 19 7 10 5 11 3 19 3v2l-22-2-17-4-7-4v-2l-11-3-13-8z" fill="#FCBF6E"/>
<path transform="translate(565,1049)" d="m0 0 3 1-29 11-12 5-20 9-10 6-10 8-10 10-4 2 2-5 10-10 11-8 10-6 28-12z" fill="#8E7665"/>
<path transform="translate(1007,730)" d="m0 0 2 3 7-2-1 7v7h2v8l-4 8-2 5h2v5l-1 1 1 2-4 4-1 5h-2v-7l2-10 4-17-1-5-4-5z" fill="#B2DBE1"/>
<path transform="translate(767,405)" d="m0 0 22 2 20 4 11 3v1h-7l-9-2-4 1-19-4h-17l-9 2-5 2-3-1-2-2 18-5z" fill="#8C7261"/>
<path transform="translate(953,835)" d="m0 0 3 1-3 2-2 5-4 3h-3l-2 5-5 12h-2l-2 9-3 7-3 1-3 10-8 10-6 8h-2v2h-2l2-4 7-8 6-9 4-10 5-5 3-12 6-13 3-7 8-6z" fill="#6E4130"/>
<path transform="translate(968,704)" d="m0 0 15 3 5 3v5l-1 4-10-2-8-2-2-3-1-6z" fill="#412929"/>
<path transform="translate(864,703)" d="m0 0 3 1 3 8v10l-3 6-6 5-9 3h-8l-10-2-5-4v-7l3-3 6-2 4-1 2-4 1 2-4 6-8 3v7l5 2h12l11-4 5-6v-13z" fill="#E3BB9C"/>
<path transform="translate(660,1015)" d="m0 0 4 1-5 3-2 3h-2l-3 7h2l5 8 8 5-2 1-10-4-11-9-4-3 1-3 16-7z" fill="#E3BB9D"/>
<path transform="translate(544,764)" d="m0 0 3 2 5 11 2 4 1 1 1 16 3 10 2 6-4-2-3-10-4-9-5-19z" fill="#6D4130"/>
<path transform="translate(980,706)" d="m0 0 6 1 12 8 6 7 2 5v24l-4 20-9 27-1-4 7-21 4-18v-28l-1-3-2-1-2-4-7-2-2-5-6-4z" fill="#8D7362"/>
<path transform="translate(730,667)" d="m0 0 4 1-2 2-4 1-51 1-19-1v-2l24-1h43z" fill="#DFC0A6"/>
<path transform="translate(703,695)" d="m0 0h2l2 3 1 8 7 5 1 5-2 10-7 6-3 2h-15l-6-2-1-7 5-3-1 7 3 2h11l9-5 1-1v-14l-4-4-2-9z" fill="#917765"/>
<path transform="translate(611,1014)" d="m0 0h5l-3 2-38 13-16 6-21 8-14 6-4-1 13-6 17-7 16-6 20-7 18-6z" fill="#EAC7AC"/>
<path transform="translate(976,524)" d="m0 0 1 2-4 10-4 17-2 37 4-1-1 6-5-1v-33l3-21 4-9 3-6z" fill="#6E4130"/>
<path transform="translate(674,1047)" d="m0 0 6 1 9 4 16 6 18 5 10 3 15 3 6 2v2l-7-1-22-5-29-9-16-6-6-4z" fill="#E4BC9E"/>
<path transform="translate(541,747)" d="m0 0 7 14 4 10 2 7-2 2-3-8-4-7 1 9 5 19 5 12 1 5-3-4-5-11-7-27-1-5z" fill="#8B6D5B"/>
<path transform="translate(1273,435)" d="m0 0 4 1 7 10 6 9v2l-5 1-4-3v-2h-2l-4-7-5-6 2-4z" fill="#B2DBE1"/>
<path transform="translate(978,797)" d="m0 0 3 1-1 3-2 9-4 8-4 5h-2l-2 4-10 8-7 3-6 4-3 3 2-5 7-5 5-1v-2l13-13h2l2-4 5-8z" fill="#AB7249"/>
<path transform="translate(277,485)" d="m0 0h1v6l-10 18-5 7-3 9-3 5-5 8-3 7-2-1 7-16 8-16 12-22z" fill="#D0F5FA"/>
<path transform="translate(688,967)" d="m0 0h1l1 8-3 14v7l-1 6h-2l-2 4-9 4-4 1v2l-3 2h-5l12-9 7-8 5-12z" fill="#FEC06C"/>
<path transform="translate(445,1275)" d="m0 0 4 1 4 4 5 2 5 4-5 1v4l-6 1-10-11-1-3z" fill="#6D4232"/>
<path transform="translate(679,659)" d="m0 0 5 1h3l-1 4-7 2-11 1h-11l1-5 5-2z" fill="#693E2F"/>
<path transform="translate(873,951)" d="m0 0h2v2l-10 7-1 1 1 12-1 7 7 11 5 4-1 2-8-7-4-6-3-5-1-6-3-2v-5l10-10 6-4z" fill="#927F70"/>
<path transform="translate(622,1012)" d="m0 0 2 1-4 3-12 3-32 11-15 6-26 10-5 1v-2l26-10 15-6 36-12z" fill="#A2704C"/>
<path transform="translate(982,517)" d="m0 0 1 3-7 21-2 12v23l3 21v6l-2-1-2-8-1-11v-36l3-12 3-11h2z" fill="#938172"/>
<path transform="translate(956,722)" d="m0 0 7 2 10 1 3 5-1 2-3 1h-12l-3-5-3-2v-3z" fill="#FAD5BA"/>
<path transform="translate(650,576)" d="m0 0h9l-7 11-8 12-3 1-1-3 5-11 3-7z" fill="#6E4130"/>
<path transform="translate(755,191)" d="m0 0h7l-1 2-7 3-1 2h-18l-8-3 3-2z" fill="#ADD9E0"/>
<path transform="translate(850,691)" d="m0 0 5 1 4 9 5 8 1 3v10h-1l-2-12-6-1-4-1 1-14h-5v7l2 3-1 8-2-4-1-5v-11z" fill="#6E4130"/>
<path transform="translate(964,723)" d="m0 0 13 2 2 3v3h3l4 6h2l-2 6-2 4h-3l-2-5-1-5-6-4 3-1-1-5-3-1-8-1z" fill="#FBC296"/>
<path transform="translate(789,1071)" d="m0 0 4 1-1 2-15 3h-17l-11-2v-2h20l15-1z" fill="#C4DEDE"/>
<path transform="translate(930,861)" d="m0 0 2 2-1 11-6 7-4 9-7 11-7 7-5 7-2-1 2-4 11-13 12-21 3-4z" fill="#AF7448"/>
<path transform="translate(687,655)" d="m0 0h23l12 1-3 3-22-1-20 1h-16l4-2z" fill="#9A7E68"/>
<path transform="translate(637,1025)" d="m0 0h3l5 5 12 9 3 1 1 4-5-2-13-7-6-4h-15l3-2z" fill="#BCDEE3"/>
<path transform="translate(1089,1264)" d="m0 0h2l1 41-3 5-10 3-12 5-8 1 3-3 12-3 6-4 9-1z" fill="#8E7665"/>
<path transform="translate(1101,1242)" d="m0 0h2l2 49 2 7v6l-2 2-3-15-1-12z" fill="#8F7766"/>
<path transform="translate(444,1152)" d="m0 0h1v8l-4 35-2 31h-1v-25l1-9v-13l-2-4v-5h2l1-5 2-2z" fill="#B3DBE1"/>
<path transform="translate(988,223)" d="m0 0 7 1 16 6v3l-3 1-4-3-7 1-3 1-6-3-1-1v-5z" fill="#AFDAE0"/>
<path transform="translate(1056,1321)" d="m0 0 4 1-4 3-12 3-24 8-2 2-10 1v2l-9 2-7 3h-6l3-2 51-17z" fill="#6E4130"/>
<path transform="translate(845,689)" d="m0 0h10l5 10-1 3-2-2-2-8h-9l2 20-4 7-1-2 2-4-1-7-2-4v-9z" fill="#96745C"/>
<path transform="translate(583,499)" d="m0 0 1 2-9 16-5 14-3 7-2 12-2-3 1-10 4-12 11-22z" fill="#85BDC4"/>
<path transform="translate(938,208)" d="m0 0 9 1 17 5-1 2-11-1-10 1-5-3v-4z" fill="#B1DAE1"/>
<path transform="translate(921,880)" d="m0 0 1 3-6 11-8 10-7 8-5 5h-3l13-16 3-3 4-7 5-9z" fill="#E8BC9B"/>
<path transform="translate(1e3 757)" d="m0 0h1v8l-4 21-4 10-6 12h-2l3-10 10-30z" fill="#84CBD6"/>
<path transform="translate(1e3 746)" d="m0 0h2v9l-5 21-2 3-1-1 1-18 1-5h2v-6z" fill="#432A29"/>
<path transform="translate(666,945)" d="m0 0h3v2l4 2v2h2l3 8 1 4v12l-2 10-4 7-7 6-4 2-3-1 9-5 5-6 2-7 1-18-3-10-5-5z" fill="#8E7463"/>
<path transform="translate(748,609)" d="m0 0 11 3 30 8 16 4v1h-12l-13-3-4-3-26-7-2-1z" fill="#6E4130"/>
<path transform="translate(1006,739)" d="m0 0h2v2l3 1 2 4-2 13-2 7-3-1 1-13-1-1z" fill="#C3E3E9"/>
<path transform="translate(996,761)" d="m0 0h2l-2 17-5 11-5 12-3 4-4 9-1 2h-2v2h-2l2-4 3-4 2-9 4-3 3-9 5-14z" fill="#6E4130"/>
<path transform="translate(814,191)" d="m0 0h18l17 2-2 2-5 1-24-1-4-2z" fill="#85CAD4"/>
<path transform="translate(913,618)" d="m0 0h9l4 4-1 4-4-4-6-1h-14l-15 2-15 3-10 1 1-2 30-5z" fill="#886653"/>
<path transform="translate(983,815)" d="m0 0v3l-9 10-9 9-8 7-8 9-5 12-3 7-1-3 6-16 7-8 16-16 8-7z" fill="#8E7665"/>
<path transform="translate(978,611)" d="m0 0 2 2 1 13h1v12l-3 24-3 4 2-27z" fill="#C4E4EA"/>
<path transform="translate(696,691)" d="m0 0 5 2 4 5 2 9 4 4v14l-5 4-2-1 4-4-1-6 1-5-4-4-1-9-7-8z" fill="#6E4130"/>
<path transform="translate(802,412)" d="m0 0 7 1 5 2 8 5 23 8 9 5-2 1-10-4-23-8-7-5-10-4z" fill="#6B3F2F"/>
<path transform="translate(703,426)" d="m0 0 2 1-3 3-35 15-3-1 1-2 28-12z" fill="#48302D"/>
<path transform="translate(721,974)" d="m0 0 21 8 12 3 17 2h20l-4 2h-18l-20-2-16-5-12-6z" fill="#B47647"/>
<path transform="translate(735,607)" d="m0 0 5 1 24 7 14 4 3 2h-7l-19-5-19-7z" fill="#472C2A"/>
<path transform="translate(703,660)" d="m0 0h4v2l4-2h10l6 2 5 1v2l-4 1h-11l-1-1-10-2v-2z" fill="#6E4130"/>
<path transform="translate(963,468)" d="m0 0h7l12 5 6 9v15l-1 8h-1l-1-14-2-6-1-8-1-3-9-3-9-2z" fill="#927F6F"/>
<path transform="translate(1023,1337)" d="m0 0 1 4-6 2-4 2h-6l-1 4-11 1 2-4 3-2h5l5-3 10-3z" fill="#6E4130"/>
<path transform="translate(748,614)" d="m0 0 7 1 19 5 14 3-2 2-11-1-19-5-8-3z" fill="#8E7666"/>
<path transform="translate(694,688)" d="m0 0 9 3 6 4 3 5 3 11-8-5-1-8-1-3-4-1-7-5z" fill="#B17547"/>
<path transform="translate(560,1046)" d="m0 0h4v3h-2v2l-16 6h-5l1-3 5-3 6-2h4v-2z" fill="#482D2A"/>
<path transform="translate(777,190)" d="m0 0h14l-4 4h-8l-10-1h-2l-2 5-3 1v2l-4-1 2-1 4-8z" fill="#D8F6FA"/>
<path transform="translate(767,405)" d="m0 0h4v2l10 1v1l-17 1-9 2-5 2-3-1-2-2 18-5z" fill="#896A57"/>
<path transform="translate(1059,1316)" d="m0 0 3 1-10 5-42 14-3-1 33-12z" fill="#C4E4EA"/>
<path transform="translate(569,718)" d="m0 0 4 1-13 4-2 3-4 2-2 5 1 4v17h-1l-1-12-2-3-1-9 11-9z" fill="#E3BB9D"/>
<path transform="translate(502,1074)" d="m0 0 2 1-3 1-2 4-11 8-11 11-4 2 2-5 10-10 11-8z" fill="#8D7362"/>
<path transform="translate(992,743)" d="m0 0 2 4-2 19-2 7-7 24h-2l2-12 3-6 4-17 1-17z" fill="#B47647"/>
<path transform="translate(1056,1068)" d="m0 0 6 2 10 7 10 10 7 14 1 6-1-2h-2l-4-11-7-10-10-9-10-6z" fill="#8C7260"/>
<path transform="translate(603,873)" d="m0 0 4 5 3 5 6 11 4 6-1 2-5-6-4-4-6-11-1-2z" fill="#714736"/>
<path transform="translate(212,928)" d="m0 0 9 2 16 7 7 4-2 1-15-7-8-1h-5v5h-1z" fill="#FAD5BA"/>
<path transform="translate(552,239)" d="m0 0h3l2 6-5 3h-9l-1-4z" fill="#C4E5EB"/>
<path transform="translate(611,1014)" d="m0 0h5l-3 2-38 13-6 1v-2l17-6 18-6z" fill="#E9C3A7"/>
<path transform="translate(705,1061)" d="m0 0 11 2 21 6 13 3-1 2-12-2-26-7-6-3z" fill="#B9DEE4"/>
<path transform="translate(903,1026)" d="m0 0 14 4v1h-13l-15 7-6 2 1-3 17-9h2z" fill="#C6E4E9"/>
<path transform="translate(662,577)" d="m0 0h6l10 4 21 10-1 2-6-2-8-4-12-5-6-3-7 1z" fill="#8E7564"/>
<path transform="translate(1191,342)" d="m0 0 8 6 10 10-2 1-11-6-5-5z" fill="#CFF5FA"/>
<path transform="translate(640,1021)" d="m0 0 3 1h-2v3l-30 10-8 3-4-1 16-6z" fill="#8E7564"/>
<path transform="translate(514,258)" d="m0 0h6l3 5v2l-5 1h-8l1-6z" fill="#C4E4EA"/>
<path transform="translate(547,712)" d="m0 0 2 1-3 2zm-3 3 2 1-6 6 1 6h4l-4 8-4-1 1-14 4-5z" fill="#826353"/>
<path transform="translate(703,695)" d="m0 0h2l2 3 1 8 5 5v13l-4 5-5 3-4-1 9-5 1-1v-14l-4-4-2-9z" fill="#886653"/>
<path transform="translate(936,878)" d="m0 0 1 2-9 16-5 9-10 9v-3l4-5 5-4 7-13z" fill="#8F7767"/>
<path transform="translate(1241,470)" d="m0 0h1l1 7-3 9-2 4-6 4h-2v2l-12 3-7-1v-1l11-1 10-5 7-8 1-2z" fill="#CFF5FA"/>
<path transform="translate(741,412)" d="m0 0h8l-4 3-16 7-9 3h-5l2-2 10-3 9-4-1-2z" fill="#704636"/>
<path transform="translate(479,1077)" d="m0 0 1 2-9 11-6 9-6 12-1-4 8-15 7-9 5-5z" fill="#8D7362"/>
<path transform="translate(1088,1266)" d="m0 0h1l1 39-1 3-2 1h-7l4-3 3-1z" fill="#C4E4EA"/>
<path transform="translate(564,819)" d="m0 0 12 12 7 9-1 2-8-8-5-4-4-5z" fill="#744B3A"/>
<path transform="translate(1035,241)" d="m0 0 5 1 6 3-1 5-5-1-6-3z" fill="#ACD9DF"/>
<path transform="translate(564,859)" d="m0 0 9 3 3 7-1 5-3-1-4-8-4-5z" fill="#B2DBE1"/>
<path transform="translate(571,716)" d="m0 0h15l5 3v2l4 1 3 3h-4v3h-2l-5-9-5-1h-13z" fill="#B07447"/>
<path transform="translate(597,1351)" d="m0 0h2v2l7-1 4 1 5 3-1 2-3-1-7-1h-1v2l-8-1 2-4z" fill="#412929"/>
<path transform="translate(982,517)" d="m0 0 1 3-7 21-2 10-2 1 1-11 5-17h2z" fill="#8E7564"/>
<path transform="translate(789,620)" d="m0 0 9 1 10 2 1 3 4 1-9 1-2-1-14-2v-1h12l-11-3z" fill="#85624F"/>
<path transform="translate(665,941)" d="m0 0 5 2 18 10 3 4-5 1 1-2-3-3-9-4-4-1-2-1v-2l-4-2z" fill="#6E4130"/>
<path transform="translate(970,682)" d="m0 0h1v20h-3l-1-2v-8l2-8z" fill="#412929"/>
<path transform="translate(499,1061)" d="m0 0 4 1-13 9h-2v2l-6 5-1 2-2-1 3-5 7-6z" fill="#8B6E5B"/>
<path transform="translate(1118,287)" d="m0 0 4 1 4 3v2h-2v2h-8l1-7z" fill="#B2DBE1"/>
<path transform="translate(585,718)" d="m0 0 3 1 3 5-1 4-5-3-1 5-2-3-3-4 5-1-4-3z" fill="#FCC074"/>
<path transform="translate(973,681)" d="m0 0 1 4v13l3 5 3 3-6-1-3-5v-15z" fill="#8E7665"/>
<path transform="translate(687,655)" d="m0 0h23l12 1-3 3-13-1v-2h-19z" fill="#A17C5F"/>
<path transform="translate(939,845)" d="m0 0 1 4-7 16-1 5h-1v-12l1-5h3z" fill="#926C53"/>
<path transform="translate(541,766)" d="m0 0 2 2 6 23-1 4-2-6v-4h-2l-2-7v-4l-2-1z" fill="#98D2DB"/>
<path transform="translate(861,961)" d="m0 0 1 2-1 6 1 2v10l-2-2-1-6-3-2v-5z" fill="#886653"/>
<path transform="translate(907,1366)" d="m0 0 5 1-3 1v2h-4l-1 2-9-1v2l-4-1h2v-3l4-1 3 1 1-2h5z" fill="#412929"/>
<path transform="translate(582,836)" d="m0 0 3 2 9-1 2 4-1 3-1-2-6 1-6-5z" fill="#938172"/>
<path transform="translate(1244,1181)" d="m0 0 5 1 2 3-3 1h-12l-1-2z" fill="#FCC684"/>
<path transform="translate(583,499)" d="m0 0 1 2-10 18h-2l1-4 6-12z" fill="#86C0C8"/>
<path transform="translate(1067,256)" d="m0 0 5 2 3 2v3h-9l-1-4z" fill="#B2DBE1"/>
<path transform="translate(437,1226)" d="m0 0h1v13l-2 15-3 5-5 1 5-6 2-6z" fill="#B2DBE1"/>
<path transform="translate(475,1099)" d="m0 0 1 2-6 10-4 11-2 6-1-3 4-13 5-11z" fill="#927E6F"/>
<path transform="translate(805,1068)" d="m0 0h6v2l-11 3h-8l3-3z" fill="#B5DCE2"/>
<path transform="translate(865,723)" d="m0 0v3l-6 5-9 3h-12l-3-2h14l10-4z" fill="#A07555"/>
<path transform="translate(977,664)" d="m0 0 1 4-2 20-3-1 2-18z" fill="#8CCED8"/>
<path transform="translate(637,1025)" d="m0 0h3l5 6-4-1h-9l-10 1 3-2z" fill="#C4E4EA"/>
<path transform="translate(585,725)" d="m0 0 4 1 1 4-3 5h-4l1-8z" fill="#FAD5BA"/>
<path transform="translate(699,706)" d="m0 0 5 3-1 4-4 4-2 6-5 2-4-1 7-3 4-8z" fill="#6E4130"/>
<path transform="translate(666,945)" d="m0 0h3v2l4 2v2h2l3 8v12h-1l-2-13-4-8z" fill="#907A6A"/>
<path transform="translate(969,746)" d="m0 0 2 2v9l-2 10-3-1-1-5 3-3z" fill="#B47647"/>
<path transform="translate(463,1296)" d="m0 0 5 1 5 5-3 3-9-6z" fill="#734939"/>
<path transform="translate(930,861)" d="m0 0 2 2-1 11-6 7-2-2 5-7z" fill="#AC7349"/>
<path transform="translate(712,709)" d="m0 0 3 2 1 5-2 10-7 6v-3l5-5z" fill="#948070"/>
<path transform="translate(677,658)" d="m0 0 3 1-1 1-16 1-5 1-1 6h-2l1-7 3-2z" fill="#8F6D57"/>
<path transform="translate(764,191)" d="m0 0h10v1l-7 1-2 5-3 1v2l-4-1 2-1z" fill="#CFF5FA"/>
<path transform="translate(596,1034)" d="m0 0 7 1-1 2-9 3h-5l5-5z" fill="#4B2E2A"/>
<path transform="translate(544,721)" d="m0 0 2 3v2l6-2-4 4-7 1h-1l-1-7h3z" fill="#6C402F"/>
<path transform="translate(1107,279)" d="m0 0 8 4 1 3-1 2-6-2-2-2z" fill="#D0F5FA"/>
<path transform="translate(964,723)" d="m0 0 13 2 2 5-2 3h-5l3-1-1-5-3-1-8-1z" fill="#FCC186"/>
<path transform="translate(1102,1279)" d="m0 0h1l1 11 3 8v6l-2 2-3-15z" fill="#8E7564"/>
<path transform="translate(977,521)" d="m0 0 2 3-5 17-2 1v-6l4-10z" fill="#452B29"/>
<path transform="translate(758,407)" d="m0 0h5l-4 2-1 2-8 3-3-1-2-2z" fill="#8B6F5E"/>
<path transform="translate(622,1012)" d="m0 0 2 1-4 3-12 3-11 3 1-2z" fill="#8D6851"/>
<path transform="translate(771,621)" d="m0 0h9l8 2-2 2-11-1-4-1z" fill="#8F7868"/>
<path transform="translate(1227,1187)" d="m0 0 2 1-4 5-6 3-5 6-1-2 7-8z" fill="#FAC884"/>
<path transform="translate(603,873)" d="m0 0 4 5 3 12-3-3-4-8z" fill="#725346"/>
<path transform="translate(659,580)" d="m0 0 2 1-8 11-3 5-3 1 2-5 8-11z" fill="#DCC4AE"/>
<path transform="translate(696,704)" d="m0 0 4 4v5l-5 9-6 1 2-2 3-1 3-8v-5z" fill="#886653"/>
<path transform="translate(548,781)" d="m0 0 3 2 3 16h-2l-4-12z" fill="#462C29"/>
<path transform="translate(835,697)" d="m0 0 4 8h2v2l3 1v2l-6-1-4-7z" fill="#FEC06C"/>
<path transform="translate(654,583)" d="m0 0 2 1-7 11-4 6-1-3 9-14z" fill="#907562"/>
<path transform="translate(904,1028)" d="m0 0h7l6 2v1h-13l-6 3-3-1z" fill="#B6DDE3"/>
<path transform="translate(930,660)" d="m0 0 3 2-1 12v8l-2-3z" fill="#8A6652"/>
<path transform="translate(513,1069)" d="m0 0h5l-4 3-10 5-3-1 5-4z" fill="#8F7868"/>
<path transform="translate(210,924)" d="m0 0h3v2l10 3 6 3-3 1-11-4h-4z" fill="#FBFDFD"/>
<path transform="translate(558,812)" d="m0 0h3l4 5 2 4h-2l-1 2-6-9z" fill="#886A58"/>
<path transform="translate(413,1249)" d="m0 0 9 3 1 6-5-3z" fill="#D0F5FA"/>
<path transform="translate(674,1047)" d="m0 0 6 1 10 5v2l-10-3-6-4z" fill="#E5BDA0"/>
<path transform="translate(672,939)" d="m0 0h2v2l6 2 9 6-2 1-11-6-4-3z" fill="#E5BB98"/>
<path transform="translate(889,920)" d="m0 0 2 1-8 7-10 4-2-1 15-8z" fill="#F8C196"/>
<path transform="translate(662,577)" d="m0 0h6l10 4 1 3-5-1-8-4-7 1z" fill="#927F70"/>
<path transform="translate(688,1055)" d="m0 0 5 1 12 4v2l-9-2-6-2v-2z" fill="#B8DEE4"/>
<path transform="translate(883 1e3)" d="m0 0 5 1 9 4 6 1v2l2 1-9-2-9-4z" fill="#8F887C"/>
<path transform="translate(888,937)" d="m0 0h2v2l-10 7-4 5-2-1 8-9z" fill="#8E7564"/>
<path transform="translate(931,734)" d="m0 0 5 2 1 3h2l1-2 1 2-2 4-5-3z" fill="#C4E4EA"/>
<path transform="translate(847,690)" d="m0 0 9 1 4 8-1 3-2-2-2-8h-9z" fill="#886653"/>
<path transform="translate(296,455)" d="m0 0 3 4-4 5-5 2 2-5z" fill="#CFF5FA"/>
<path transform="translate(1025,1067)" d="m0 0 8 2 4 4h-7l-2-1v-2l-3-1z" fill="#553934"/>
<path transform="translate(862,981)" d="m0 0 4 2 6 9 4 3-1 2-8-7-4-6z" fill="#907A6A"/>
<path transform="translate(957,740)" d="m0 0h4v5l-3 1 1 2-1 6h-1l-1-11z" fill="#C4E4EA"/>
<path transform="translate(974,689)" d="m0 0h1l2 12 3 4-4-2-3-5v-7z" fill="#91D0DA"/>
<path transform="translate(690,690)" d="m0 0h6v1l-5 1v6l4 4-5-1-2-3 1-7z" fill="#6E4130"/>
<path transform="translate(688,688)" d="m0 0h6l1 2-5 1-3 8h-1v-8z" fill="#987257"/>
<path transform="translate(1078,1309)" d="m0 0 2 1-8 5h-7l2-2z" fill="#C4E4EA"/>
<path transform="translate(923,900)" d="m0 0h2l-2 5-10 9v-3l4-5 5-4z" fill="#8D7261"/>
<path transform="translate(735,609)" d="m0 0 7 1 7 3-1 2-5-1-8-3z" fill="#8F7868"/>
<path transform="translate(1221,204)" d="m0 0h14l-2 3h-7l-5-2z" fill="#8F5D3F"/>
<path transform="translate(1061,1087)" d="m0 0 4 2 7 6 1 6-4-4-7-8z" fill="#8E7565"/>
<path transform="translate(846,958)" d="m0 0h2l-1 5 1 3-5-1-3-2h2v-2z" fill="#886653"/>
<path transform="translate(590,814)" d="m0 0h1v11l-2 5-3-1 3-9z" fill="#FBC296"/>
<path transform="translate(984,736)" d="m0 0 4 1-2 6-5-1 1-4z" fill="#FEC06C"/>
<path transform="translate(444,1278)" d="m0 0 4 2 1 5-4-1-3-3v-2z" fill="#492F2D"/>
<path transform="translate(952,834)" d="m0 0 4 1-7 3-6 4-3 3 2-5 7-5z" fill="#886653"/>
<path transform="translate(539,751)" d="m0 0h1l2 15-2 3-2-12z" fill="#B8DEE4"/>
<path transform="translate(565,732)" d="m0 0 3 2v2h-5l-3 3-4-1 6-5z" fill="#FEC06C"/>
<path transform="translate(735,607)" d="m0 0 5 1 10 3 1 3-9-3-7-3z" fill="#4E302B"/>
<path transform="translate(572,519)" d="m0 0h2l-3 9-2 3-1-6z" fill="#87B5B9"/>
<path transform="translate(1e3 232)" d="m0 0 4 2v4l-4 1-2-1 1-4z" fill="#CFF5FA"/>
<path transform="translate(590,1024)" d="m0 0 3 1-8 4-1 1h-6l3-3z" fill="#6E4130"/>
<path transform="translate(581,881)" d="m0 0 3 4 2 4-1 3-2 1-3-11z" fill="#B2DBE1"/>
<path transform="translate(940,841)" d="m0 0 1 2-6 12-2-2 5-10z" fill="#938172"/>
<path transform="translate(446,1273)" d="m0 0 4 1 1 4 5 1 1 2-6-1-3-4h-4v-2z" fill="#886653"/>
<path transform="translate(513,1053)" d="m0 0 2 1-3 3-7 4-4-1z" fill="#8D7261"/>
<path transform="translate(838,721)" d="m0 0 3 1-6 3v7l-3-1v-7z" fill="#8F7563"/>
<path transform="translate(951,1363)" d="m0 0h7v1h-5l1 3-7 2 1-4h3z" fill="#412929"/>
<path transform="translate(640,1021)" d="m0 0 3 1h-2v3l-10 2 2-1v-2z" fill="#8E7361"/>
<path transform="translate(1324,1058)" d="m0 0h2l-2 6-2 4-3-1 3-6z" fill="#B5DCE2"/>
<path transform="translate(572,1033)" d="m0 0 2 2-5 2-8 3-3-1 11-5z" fill="#412929"/>
<path transform="translate(565,825)" d="m0 0 5 5 6 7-1 2-7-8v-2l-3-1z" fill="#8DCED9"/>
</svg>
